<svg xmlns="http://www.w3.org/2000/svg" width="135.902" height="40.002"><g><rect width="134.871" height="38.97" rx="4" transform="translate(.516 .516)"/><path class="a" fill="#96999c" d="M130.788 40.001H5.115A5.12 5.12 0 0 1 0 34.886V5.115A5.12 5.12 0 0 1 5.115.001h125.673a5.121 5.121 0 0 1 5.115 5.115v29.771a5.121 5.121 0 0 1-5.115 5.114ZM5.115 1.009a4.111 4.111 0 0 0-4.106 4.106v29.772a4.111 4.111 0 0 0 4.106 4.106h125.673a4.111 4.111 0 0 0 4.106-4.106V5.115a4.111 4.111 0 0 0-4.106-4.106Z"/></g><g fill="#fff"><path class="b" d="m43.185 11.46-.579 1.9H41.34l2.154-6.72h1.565l2.184 6.72h-1.317l-.606-1.9Zm1.924-.927-.529-1.655c-.13-.409-.24-.867-.339-1.256h-.021c-.1.389-.2.857-.319 1.256l-.518 1.655ZM49.076 8.509l.787 2.463c.14.429.24.818.33 1.216h.03c.089-.4.2-.777.329-1.216l.777-2.463h1.286l-1.855 4.855h-1.206l-1.8-4.855ZM57.508 12.197a6.527 6.527 0 0 0 .08 1.166h-1.107l-.089-.538h-.03a1.774 1.774 0 0 1-1.436.648 1.441 1.441 0 0 1-1.528-1.446c0-1.216 1.087-1.844 2.881-1.834v-.08c0-.319-.13-.847-.987-.847a2.565 2.565 0 0 0-1.306.359l-.24-.8a3.494 3.494 0 0 1 1.755-.429 1.819 1.819 0 0 1 2 2.053Zm-1.2-1.207c-.867-.01-1.7.169-1.7.908a.643.643 0 0 0 .7.7 1.007 1.007 0 0 0 .967-.668.823.823 0 0 0 .03-.269ZM59.85 7.81a.694.694 0 1 1 .01 0Zm-.608 5.553V8.508h1.226v4.852ZM62.232 6.279h1.226v7.089h-1.226ZM68.997 12.197a6.593 6.593 0 0 0 .079 1.166h-1.107l-.089-.538h-.03a1.774 1.774 0 0 1-1.436.648 1.441 1.441 0 0 1-1.517-1.446c0-1.216 1.087-1.844 2.881-1.834v-.08c0-.319-.129-.847-.987-.847a2.565 2.565 0 0 0-1.306.359l-.239-.8a3.491 3.491 0 0 1 1.751-.426 1.819 1.819 0 0 1 2 2.053Zm-1.2-1.207c-.867-.01-1.694.169-1.694.908a.643.643 0 0 0 .7.7 1.007 1.007 0 0 0 .967-.668.823.823 0 0 0 .03-.269ZM70.734 6.279h1.226v2.9h.02a1.758 1.758 0 0 1 1.555-.777c1.187 0 2.034.987 2.023 2.462a2.325 2.325 0 0 1-2.2 2.612 1.671 1.671 0 0 1-1.535-.838h-.02l-.06.728h-1.047c.02-.329.04-.867.04-1.356Zm1.226 5.085a1.36 1.36 0 0 0 .029.289 1.121 1.121 0 0 0 1.087.858c.768 0 1.236-.608 1.236-1.6 0-.857-.409-1.555-1.226-1.555a1.14 1.14 0 0 0-1.086.9 1.471 1.471 0 0 0-.04.319ZM77.003 6.279h1.226v7.089h-1.226ZM80.871 11.277a1.319 1.319 0 0 0 1.5 1.256 3.91 3.91 0 0 0 1.346-.22l.179.837a4.358 4.358 0 0 1-1.694.309 2.3 2.3 0 0 1-2.5-2.453 2.4 2.4 0 0 1 2.373-2.612 2.11 2.11 0 0 1 2.093 2.363 3.127 3.127 0 0 1-.039.519Zm2.133-.858a1.044 1.044 0 0 0-1.007-1.186 1.2 1.2 0 0 0-1.126 1.186ZM90.21 13.477a2.348 2.348 0 0 1-2.433-2.5 2.4 2.4 0 0 1 2.513-2.572 2.329 2.329 0 0 1 2.412 2.492 2.4 2.4 0 0 1-2.483 2.582Zm.04-.888c.7 0 1.187-.678 1.187-1.664 0-.758-.34-1.635-1.176-1.635-.868 0-1.217.848-1.217 1.655 0 .937.469 1.645 1.2 1.645ZM94.147 9.954c0-.559-.02-1.027-.04-1.446h1.064l.06.728h.03a1.782 1.782 0 0 1 1.555-.837c.848 0 1.725.548 1.725 2.083v2.881h-1.226v-2.741c0-.7-.26-1.227-.927-1.227a1.029 1.029 0 0 0-.957.718 1.131 1.131 0 0 0-.06.389v2.861h-1.226ZM104.193 7.262v1.246h1.166v.917h-1.166v2.134c0 .6.16.9.628.9a1.61 1.61 0 0 0 .478-.05l.02.927a2.679 2.679 0 0 1-.888.13 1.4 1.4 0 0 1-1.056-.4 1.912 1.912 0 0 1-.388-1.366V9.425h-.689v-.917h.689v-.907ZM106.726 6.279h1.226V9.17h.02a1.618 1.618 0 0 1 .608-.548 1.728 1.728 0 0 1 .848-.219c.827 0 1.694.548 1.694 2.1v2.861h-1.226v-2.732c0-.7-.259-1.237-.938-1.237a1.024 1.024 0 0 0-.957.688 1.111 1.111 0 0 0-.05.369v2.911h-1.226ZM113.735 11.277a1.319 1.319 0 0 0 1.5 1.256 3.91 3.91 0 0 0 1.346-.22l.18.837a4.358 4.358 0 0 1-1.694.309 2.3 2.3 0 0 1-2.5-2.453 2.4 2.4 0 0 1 2.373-2.612 2.11 2.11 0 0 1 2.093 2.363 3.126 3.126 0 0 1-.039.519Zm2.133-.858a1.044 1.044 0 0 0-1.007-1.186 1.2 1.2 0 0 0-1.127 1.186Z"/></g><g fill="#fff"><path class="b" d="M31.019 19.708a5.7 5.7 0 0 1 2.849-4.791 6.227 6.227 0 0 0-4.825-2.491c-2.03-.2-4 1.161-5.031 1.161-1.054 0-2.65-1.141-4.364-1.108a6.474 6.474 0 0 0-5.407 3.149c-2.338 3.864-.594 9.542 1.645 12.667 1.121 1.529 2.431 3.237 4.145 3.176 1.677-.066 2.3-1.019 4.327-1.019 2.006 0 2.594 1.019 4.343.981 1.8-.028 2.932-1.537 4.012-3.08a12.317 12.317 0 0 0 1.835-3.569 5.562 5.562 0 0 1-3.529-5.076M27.716 10.276a5.879 5.879 0 0 0 1.347-4.22 5.986 5.986 0 0 0-3.876 2.006 5.6 5.6 0 0 0-1.383 4.064 4.956 4.956 0 0 0 3.913-1.85M52.166 31.207h-2.331l-1.281-4.023h-4.451l-1.22 4.023h-2.275l4.41-13.692h2.717Zm-4-5.711-1.157-3.575q-.186-.546-.692-2.578h-.04q-.2.875-.651 2.578l-1.138 3.575ZM63.502 26.149a5.614 5.614 0 0 1-1.361 3.982 3.98 3.98 0 0 1-3.026 1.3 3.031 3.031 0 0 1-2.805-1.4h-.038v5.2h-2.2V24.584q0-1.584-.08-3.25h1.929l.123 1.565h.042a3.9 3.9 0 0 1 6.246-.386 5.444 5.444 0 0 1 1.168 3.635m-2.234.08a4.072 4.072 0 0 0-.65-2.377 2.248 2.248 0 0 0-1.908-.976 2.278 2.278 0 0 0-1.473.538 2.5 2.5 0 0 0-.862 1.412 2.861 2.861 0 0 0-.1.668v1.647a2.635 2.635 0 0 0 .657 1.817 2.19 2.19 0 0 0 1.718.741 2.237 2.237 0 0 0 1.929-.954 4.192 4.192 0 0 0 .692-2.52M74.857 26.149a5.611 5.611 0 0 1-1.362 3.982 3.977 3.977 0 0 1-3.026 1.3 3.027 3.027 0 0 1-2.8-1.4h-.041v5.2h-2.19V24.584q0-1.584-.081-3.25h1.929l.123 1.565h.042a3.9 3.9 0 0 1 6.245-.386 5.447 5.447 0 0 1 1.166 3.635m-2.233.08a4.063 4.063 0 0 0-.651-2.377 2.246 2.246 0 0 0-1.908-.976 2.283 2.283 0 0 0-1.473.538 2.5 2.5 0 0 0-.868 1.412 2.753 2.753 0 0 0-.1.668v1.647a2.628 2.628 0 0 0 .659 1.817 2.184 2.184 0 0 0 1.718.741 2.24 2.24 0 0 0 1.929-.954 4.214 4.214 0 0 0 .692-2.52M87.554 27.367a3.645 3.645 0 0 1-1.217 2.844 5.383 5.383 0 0 1-3.728 1.2 6.545 6.545 0 0 1-3.55-.852l.508-1.829a6.016 6.016 0 0 0 3.172.872 3 3 0 0 0 1.931-.558 1.832 1.832 0 0 0 .689-1.5 1.913 1.913 0 0 0-.568-1.4 5.294 5.294 0 0 0-1.892-1.058q-3.6-1.344-3.594-3.927a3.471 3.471 0 0 1 1.26-2.766 4.971 4.971 0 0 1 3.352-1.081 6.65 6.65 0 0 1 3.107.651l-.547 1.788a5.413 5.413 0 0 0-2.622-.629 2.65 2.65 0 0 0-1.807.568 1.633 1.633 0 0 0-.547 1.239 1.669 1.669 0 0 0 .628 1.34 7.075 7.075 0 0 0 1.991 1.058 6.758 6.758 0 0 1 2.6 1.665 3.49 3.49 0 0 1 .833 2.377M94.806 22.979h-2.417v4.794q0 1.829 1.281 1.828a3.984 3.984 0 0 0 .973-.1l.06 1.665a4.926 4.926 0 0 1-1.7.243 2.629 2.629 0 0 1-2.032-.791 3.892 3.892 0 0 1-.731-2.662v-4.977h-1.443v-1.646h1.443v-1.807l2.153-.651v2.458h2.417ZM105.715 26.189a5.414 5.414 0 0 1-1.3 3.738 4.643 4.643 0 0 1-3.616 1.5 4.413 4.413 0 0 1-3.464-1.443 5.242 5.242 0 0 1-1.29-3.634 5.359 5.359 0 0 1 1.329-3.755 4.6 4.6 0 0 1 3.584-1.464 4.514 4.514 0 0 1 3.495 1.442 5.2 5.2 0 0 1 1.26 3.616m-2.276.071a4.446 4.446 0 0 0-.59-2.343 2.166 2.166 0 0 0-1.968-1.182 2.2 2.2 0 0 0-2.012 1.182 4.537 4.537 0 0 0-.587 2.385 4.443 4.443 0 0 0 .587 2.341 2.212 2.212 0 0 0 1.995 1.182 2.189 2.189 0 0 0 1.968-1.2 4.447 4.447 0 0 0 .609-2.363M112.845 23.263a3.95 3.95 0 0 0-.69-.06 2.082 2.082 0 0 0-1.79.874 3.3 3.3 0 0 0-.547 1.949v5.18h-2.192l.019-6.763q0-1.707-.08-3.109h1.91l.084 1.891h.059a3.382 3.382 0 0 1 1.1-1.565 2.655 2.655 0 0 1 1.586-.529 3.612 3.612 0 0 1 .547.039ZM122.655 25.803a5.292 5.292 0 0 1-.079 1h-6.58a2.868 2.868 0 0 0 .954 2.235 3.258 3.258 0 0 0 2.154.689 7.291 7.291 0 0 0 2.66-.466l.344 1.524a8.251 8.251 0 0 1-3.312.611 4.791 4.791 0 0 1-3.61-1.36 5 5 0 0 1-1.31-3.627 5.659 5.659 0 0 1 1.221-3.719 4.2 4.2 0 0 1 3.451-1.583 3.685 3.685 0 0 1 3.234 1.583 5.348 5.348 0 0 1 .869 3.109m-2.092-.569a2.972 2.972 0 0 0-.425-1.686 1.92 1.92 0 0 0-1.748-.908 2.087 2.087 0 0 0-1.746.894 3.25 3.25 0 0 0-.648 1.706Z"/></g></svg>
