<svg version="1.1" id="Layer_1" xmlns="http://www.w3.org/2000/svg" x="0" y="0" viewBox="0 0 1080 1080" style="enable-background:new 0 0 1080 1080" xml:space="preserve"><style>.st0{fill:#fff}.st1{fill:#ea5a0b}.st2{fill:#d3d3d3}.st3{fill:#1f276c}</style><path class="st0" d="M148.4 475H935v476.1H148.4z"/><path class="st1" d="M1019.9 451 543.4 74 60.1 456.1v17.8l959.8.1z"/><path class="st0" d="m913.6 421.6-371-293.4-376.2 297.5v13.7l747.2.1z"/><path class="st2" d="M148.8 474.9h105.6v419.8H148.8z"/><path class="st3" d="M129 894.7h143.2v52.7H129zM129 474.9h143.2v26.2H129z"/><path class="st2" d="M376.1 474.9h105.6v419.8H376.1z"/><path class="st3" d="M356.4 894.7h143.2v52.7H356.4zM356.4 474.9h143.2v26.2H356.4z"/><path class="st2" d="M603.5 474.9h105.6v419.8H603.5z"/><path class="st3" d="M583.7 894.7h143.2v52.7H583.7zM583.7 474.9h143.2v26.2H583.7z"/><path class="st2" d="M830.9 474.9h105.6v419.8H830.9z"/><path class="st3" d="M811.1 894.7h143.2v52.7H811.1zM811.1 474.9h143.2v26.2H811.1z"/><path class="st1" d="M50 947.4V976.7h980V947.4z"/><path style="fill:#d64d09" d="M10.4 976.7V1006h1059.2V976.7z"/><circle class="st1" cx="540.1" cy="311.1" r="96"/><path class="st0" d="M569.5 273.2c4.3 0 7.9-3.5 7.9-7.9s-3.5-7.9-7.9-7.9h-62.4c-4.3 0-7.9 3.5-7.9 7.9s3.5 7.9 7.9 7.9H525c7.6 0 14.2 4.5 17.1 11h-34.9c-4.3 0-7.9 3.5-7.9 7.9s3.5 7.9 7.9 7.9h34.9c-3 6.5-9.5 11-17.1 11h-17.9c-3.2 0-6.1 1.9-7.3 5-1.2 3-.5 6.5 1.9 8.7l44.6 42.1c1.5 1.4 3.5 2.1 5.5 2.1 2.1 0 4.2-.8 5.8-2.4 3-3.1 2.8-8.1-.3-11.1L527 326.7c15.5-.8 28.3-12 31.8-26.7h10.7c4.3 0 7.9-3.5 7.9-7.9s-3.5-7.9-7.9-7.9h-10.8c-1-3.9-2.5-7.7-4.7-11h15.5z"/></svg>
