<svg xmlns="http://www.w3.org/2000/svg" width="64.218" height="65.855" class="bcloan_svg"><defs><style>.bcloan_svg .a{fill:#d4d2d2}.bcloan_svg .b{fill:#162b75}.bcloan_svg .c{fill:#f1f2f2}.bcloan_svg .d{fill:#f26522}</style></defs><g transform="translate(0 20.702)"><path class="a" d="M9.114 11.172a2.919 2.919 0 0 0-2.89-2.506H2.918a2.919 2.919 0 0 0-2.919 2.919v1.459a2.919 2.919 0 0 0 2.919 2.919h2.919l2.919 2.919h1.46ZM54.001 18.882h1.459l2.919-2.919h2.919a2.919 2.919 0 0 0 2.919-2.919v-1.459a2.919 2.919 0 0 0-2.919-2.919h-3.306a2.919 2.919 0 0 0-2.89 2.506ZM52.878 10.986c-1.031-7.189-7.186-9.611-14.449-9.618H25.788c-7.263.007-13.418 2.429-14.449 9.618l-1.124 9.355H54Z"/><path class="b" d="M55.544 21.71H8.674l1.312-10.918a11.17 11.17 0 0 1 5.551-8.489 20.3 20.3 0 0 1 10.25-2.3h12.641a20.3 20.3 0 0 1 10.252 2.3 11.172 11.172 0 0 1 5.552 8.489v.031Zm-43.785-2.737h40.7l-.937-7.808c-.808-5.586-5.213-8.421-13.094-8.429H25.79c-7.879.008-12.284 2.844-13.093 8.429Z"/><path class="b" d="m61.809 32.645-1.255-8.757a5.838 5.838 0 0 0-5.779-5.006H9.441a5.838 5.838 0 0 0-5.78 5.006l-1.255 8.757a5.85 5.85 0 0 0 5.779 6.67h47.842a5.849 5.849 0 0 0 5.779-6.67Z"/><path class="b" d="m61.81 32.645-1.255-8.757a5.838 5.838 0 0 0-5.78-5.006h-2.919a5.838 5.838 0 0 1 5.78 5.006l1.255 8.757a5.85 5.85 0 0 1-5.78 6.67h2.919a5.851 5.851 0 0 0 5.78-6.67Z"/><path class="a" d="M8.757 42.234a2.919 2.919 0 0 0 2.919 2.919h5.838a2.919 2.919 0 0 0 2.919-2.919v-2.919H8.757ZM43.784 42.234a2.919 2.919 0 0 0 2.919 2.919h5.838a2.919 2.919 0 0 0 2.919-2.919v-2.919H43.784Z"/><path class="c" d="M20.059 36.519v-6.653a3.383 3.383 0 0 1 3.383-3.383h16.959a3.383 3.383 0 0 1 3.383 3.383v6.653Z"/><rect class="c" width="6.857" height="3.463" rx="1.731" transform="translate(47.144 23.248)"/><rect class="c" width="6.857" height="3.463" rx="1.731" transform="translate(9.673 23.248)"/></g><g transform="translate(17.039)"><path class="d" d="M15.07 0a15.07 15.07 0 1 0 15.07 15.07A15.07 15.07 0 0 0 15.07 0Zm0 26.372a11.3 11.3 0 1 1 11.3-11.3 11.3 11.3 0 0 1-11.3 11.296Z"/><circle class="e" cx="11.302" cy="11.302" r="11.302" transform="translate(3.768 3.767)" style="fill:#fff"/><path class="d" d="M10.869 8.519h8.4c.047.006.071.03.071.071v.8a.063.063 0 0 1-.071.071h-3.162v.071a2.475 2.475 0 0 1 1.048 1.492l.036.258h2.078c.047.006.071.03.071.071v.8a.063.063 0 0 1-.071.071h-2a3.458 3.458 0 0 1-1.643 2.611 5.168 5.168 0 0 1-2.069.835c0 .024-.024.035-.071.035l4.512 5.844v.071h-1.711q-.027 0-5.231-6.786v-.036h.542q2.878 0 3.455-2.07a3 3 0 0 0 .035-.4v-.107h-4.219a.063.063 0 0 1-.071-.071v-.8c.006-.047.03-.071.071-.071h4.183a2.32 2.32 0 0 0-.906-1.315 3.806 3.806 0 0 0-1.75-.506h-1.528a.063.063 0 0 1-.071-.071v-.8c.007-.044.031-.068.072-.068Z"/></g><path class="d" d="M42.388 31.775a7.819 7.819 0 0 0-7.81 7.81h2.554a5.256 5.256 0 0 1 10.512 0h2.554a7.819 7.819 0 0 0-7.81-7.81Z"/></svg>
