<svg xmlns="http://www.w3.org/2000/svg" width="68.467" height="62.38" class="beloan_svg"><defs><style>.beloan_svg .b{fill:#162b75}.beloan_svg .c{fill:#fe8639}.beloan_svg .d{fill:#f7be9d}</style></defs><g transform="translate(-1584.491 -29.324)"><path class="a" d="m1584.6 76.925 33.011-11 33.01 11-33.01 13.449Z" transform="translate(-.108 -36.596)" style="fill:#f26522"/><path class="b" d="m1617.506 53.777-23.23-9.464v13.132l23.23 9.781 23.23-9.781V44.313Z"/><path class="c" d="m1584.492 40.328 29.343 11.955 29.343-11.955-29.343-9.781Z"/><path class="d" d="M1627.886 70.699h-11.609a8.181 8.181 0 0 0-5.785 2.4l-9.875 8.7 6.817 6.817 10.109-8.939a2.726 2.726 0 0 1 1.928-.8h8.415a4.09 4.09 0 0 0 0-8.181Z"/><path class="d" d="M1646.759 67.313c-1.282-1.282-4.347-.887-5.629.394l-10.592 10h-16.979c-.87 0-1.706 2.516-2.321 3.131l-3.963 3.963 4.925 4.924 3.283-3.283h15.735A4.891 4.891 0 0 0 1634.7 85l12.651-12.651c1.282-1.282.69-3.755-.592-5.037Z"/><path class="b" d="m1603.06 77.97 8.245 8.238-6.451 5.5-17.385-.028 13.707-13.707a1.332 1.332 0 0 1 1.884 0Z"/><path class="b" d="m1610.108 85.019 4.385 4.385a1.332 1.332 0 0 1 0 1.883l-.39.39h-10.654Z"/><path class="c" d="M1648.067 40.328h2.445v12.226h-2.445Z"/><path class="c" d="M1649.29 51.332 1645.622 55l3.668 7.336 3.668-7.336Z"/><rect class="e" width="9.209" height="1.023" rx=".512" transform="translate(1620.208 77.103)" style="fill:#eea884"/></g></svg>
