<svg version="1.1" id="Layer_1" xmlns="http://www.w3.org/2000/svg" x="0" y="0" viewBox="0 0 1740 1080" style="enable-background:new 0 0 1740 1080" xml:space="preserve"><style>.st1{fill:#fff}.st2,.st3,.st4{opacity:.2;fill:#f7734b;enable-background:new}.st3,.st4{opacity:.3}.st4{opacity:.2;fill:#ffd5d3}.st6{fill:#d3e0f2}.st7{fill:#bbcee3}.st10{fill:#162b75}.st11{fill:#f06522}.st12{fill:#f5bc9b}.st16{fill:#002b5c}.st18{fill:#191e34}.st21{fill:#1c1c1b}.st25{fill:#6371aa}.st26{fill:none;stroke:#6371aa;stroke-linecap:round;stroke-linejoin:round;stroke-miterlimit:10}.st28{fill:#ff5c34}</style><path d="M126.7 982.3s-5.1-107.7-9.2-160.2c-1.6-20.1 0-21.6 22.4-21.6h114.9s-9-209.2-13.7-271.3c-1-13-3.5-37.2 36.7-37 50.2.2 186.1.8 186.1.8s-5.7-99.2-5.9-128.6c-.1-8.7-3.7-24.5 24.6-24.5 39.3.1 157.1.5 157.1.5h331.1s-1.2-69.6 0-98.8c.5-11.5-1.2-27.4 36.1-28.3 76.8-1.9 188.9 1.4 247.8 0 18.3-.4 30.1 10.7 29.8 27.4-.9 44.4 0 177.7 0 177.7s33 2.5 44 3.4c18.9 1.5 19.3 17.9 19.2 26-.3 26.3 0 81.3 0 81.3h69.3s3.1-145.1 0-210.3c-1.2-24.6 13-23.1 25.3-24.6 28.1-3.6 42.1-2.8 63.9-.5 15.1 1.6 14.6 15.6 14.8 21.9 3.6 127.8 0 452.3 0 452.3s29.7 1.7 38.6 1.7c13.2 0 15.1 7.4 15.1 26.9v189.8l-1448-4z" style="fill:#ffe5d2"/><path class="st1" d="m296.8 523.3-23.9.4c-2.5 0-4.4 2.1-4.4 4.5l1.4 23.9c0 2.5 2.1 4.4 4.5 4.4l22.4.2c2.5 0 4.4-2.1 4.4-4.5l.2-24.5c-.1-2.4-2.1-4.4-4.6-4.4zM337.6 574.7l-20.3.3c-2.1 0-3.8 1.8-3.7 3.8l1.2 20.3c0 2.1 1.8 3.8 3.8 3.7l19 .1c2.1 0 3.8-1.8 3.7-3.8l.1-20.7c.1-2.1-1.7-3.8-3.8-3.7zM301.4 623.3l-20.3.3c-2.1 0-3.8 1.8-3.7 3.8l1.2 20.3c0 2.1 1.8 3.8 3.8 3.7l19 .1c2.1 0 3.8-1.8 3.7-3.8l.1-20.7c0-2.1-1.7-3.8-3.8-3.7z"/><path class="st2" d="m337.6 623.3-20.3.3c-2.1 0-3.8 1.8-3.7 3.8l1.2 20.3c0 2.1 1.8 3.8 3.8 3.7l19 .1c2.1 0 3.8-1.8 3.7-3.8l.1-20.7c.1-2.1-1.7-3.8-3.8-3.7z"/><path class="st1" d="m1496.2 557.5-23.9.4c-2.5 0-4.4 2.1-4.4 4.5l1.4 23.9c0 2.5 2.1 4.4 4.5 4.4l22.4.2c2.5 0 4.4-2.1 4.4-4.5l.2-24.5c-.1-2.4-2.2-4.4-4.6-4.4z"/><path class="st3" d="m1261.2 237.4-23.9.4c-2.5 0-4.4 2.1-4.4 4.5l1.4 23.9c0 2.5 2.1 4.4 4.5 4.4l22.4.2c2.5 0 4.4-2.1 4.4-4.5l.2-24.5c-.2-2.4-2.2-4.4-4.6-4.4z"/><path class="st1" d="m1213.2 237.4-23.9.4c-2.5 0-4.4 2.1-4.4 4.5l1.4 23.9c0 2.5 2.1 4.4 4.5 4.4l22.4.2c2.5 0 4.4-2.1 4.4-4.5l.2-24.5c-.2-2.4-2.2-4.4-4.6-4.4z"/><path class="st2" d="m1494.4 688.8-20.3.3c-2.1 0-3.8 1.8-3.7 3.8l1.2 20.3c0 2.1 1.8 3.8 3.8 3.7l19 .1c2.1 0 3.8-1.8 3.7-3.8l.1-20.7c0-2.1-1.7-3.8-3.8-3.7z"/><path class="st1" d="m1450.4 688.8-20.3.3c-2.1 0-3.8 1.8-3.7 3.8l1.2 20.3c0 2.1 1.8 3.8 3.8 3.7l19 .1c2.1 0 3.8-1.8 3.7-3.8l.1-20.7c0-2.1-1.8-3.8-3.8-3.7z"/><path class="st3" d="m1414.3 556-20.3.3c-2.1 0-3.8 1.8-3.7 3.8l1.2 20.3c0 2.1 1.8 3.8 3.8 3.7l19 .1c2.1 0 3.8-1.8 3.7-3.8l.1-20.7c0-2-1.7-3.7-3.8-3.7z"/><path class="st1" d="m1494.4 737.4-20.3.3c-2.1 0-3.8 1.8-3.7 3.8l1.2 20.3c0 2.1 1.8 3.8 3.8 3.7l19 .1c2.1 0 3.8-1.8 3.7-3.8l.1-20.7c0-2.1-1.7-3.8-3.8-3.7zM1547.8 795.1l-20.3.3c-2.1 0-3.8 1.8-3.7 3.8l1.2 20.3c0 2.1 1.8 3.8 3.8 3.7l19 .1c2.1 0 3.8-1.8 3.7-3.8l.1-20.7c0-2-1.8-3.7-3.8-3.7zM1502.6 321.5l-20.3.3c-2.1 0-3.8 1.8-3.7 3.8l1.2 20.3c0 2.1 1.8 3.8 3.8 3.7l19 .1c2.1 0 3.8-1.8 3.7-3.8l.1-20.7c0-2-1.7-3.7-3.8-3.7z"/><path class="st3" d="m166.7 830.2-20.3.3c-2.1 0-3.8 1.8-3.7 3.8l1.2 20.3c0 2.1 1.8 3.8 3.8 3.7l19 .1c2.1 0 3.8-1.8 3.7-3.8l.1-20.7c0-2-1.7-3.7-3.8-3.7z"/><path class="st1" d="m208.4 830.2-20.3.3c-2.1 0-3.8 1.8-3.7 3.8l1.2 20.3c0 2.1 1.8 3.8 3.8 3.7l19 .1c2.1 0 3.8-1.8 3.7-3.8l.1-20.7c0-2-1.7-3.7-3.8-3.7z"/><path class="st4" d="m337.6 574.7-20.3.3c-2.1 0-3.8 1.8-3.7 3.8l1.2 20.3c0 2.1 1.8 3.8 3.8 3.7l19 .1c2.1 0 3.8-1.8 3.7-3.8l.1-20.7c.1-2.1-1.7-3.8-3.8-3.7zM301.4 623.3l-20.3.3c-2.1 0-3.8 1.8-3.7 3.8l1.2 20.3c0 2.1 1.8 3.8 3.8 3.7l19 .1c2.1 0 3.8-1.8 3.7-3.8l.1-20.7c0-2.1-1.7-3.8-3.8-3.7zM1213.2 237.4l-23.9.4c-2.5 0-4.4 2.1-4.4 4.5l1.4 23.9c0 2.5 2.1 4.4 4.5 4.4l22.4.2c2.5 0 4.4-2.1 4.4-4.5l.2-24.5c-.2-2.4-2.2-4.4-4.6-4.4zM1450.4 688.8l-20.3.3c-2.1 0-3.8 1.8-3.7 3.8l1.2 20.3c0 2.1 1.8 3.8 3.8 3.7l19 .1c2.1 0 3.8-1.8 3.7-3.8l.1-20.7c0-2.1-1.8-3.8-3.8-3.7zM1494.4 737.4l-20.3.3c-2.1 0-3.8 1.8-3.7 3.8l1.2 20.3c0 2.1 1.8 3.8 3.8 3.7l19 .1c2.1 0 3.8-1.8 3.7-3.8l.1-20.7c0-2.1-1.7-3.8-3.8-3.7zM1547.8 795.1l-20.3.3c-2.1 0-3.8 1.8-3.7 3.8l1.2 20.3c0 2.1 1.8 3.8 3.8 3.7l19 .1c2.1 0 3.8-1.8 3.7-3.8l.1-20.7c0-2-1.8-3.7-3.8-3.7zM208.4 830.2l-20.3.3c-2.1 0-3.8 1.8-3.7 3.8l1.2 20.3c0 2.1 1.8 3.8 3.8 3.7l19 .1c2.1 0 3.8-1.8 3.7-3.8l.1-20.7c0-2-1.7-3.7-3.8-3.7z"/><path d="M24 990.6h1692s-345.2-25.2-614.3-25.2H663.9S164.8 962.1 24 990.6z" style="fill:#ffaf6c"/><path class="st6" d="M1467.6 982.3h-26.8s-12.2-44.1-104.6-82.5 9.9-43.6 53.4-10.2c-40.6-48.1-39.3-74.8-13.2-80.3 26.2-5.4 114.5 82.1 91.2 173z"/><path class="st7" d="M1427 916.8s-10.8-65.9-52.9-106.7c-23.7 6.6-23.7 33.1 15.6 79.6l19.8 17.5s-63.6-26.3-106.5-37.3c-9.6 4.3-4.1 14.4 33.3 29.9 92.4 38.4 104.6 82.5 104.6 82.5h26.8c14.8-57.7-15.4-114-46.1-146l5.4 80.5z"/><path class="st6" d="M1475.4 982.3s47.6-142.7 9.8-240.9c-37.8-98.3-69.6 14.7-58.5 80.7s24.1 160.2 24.1 160.2h24.6z"/><path class="st7" d="M1467.8 982.3c16.4-97.5-14.1-263.2-17-278.3-19.8 9.2-31.5 74.1-24.1 118.1 11.1 66 24.1 160.2 24.1 160.2h17z"/><path class="st6" d="M1494 982.3s88.1-112.8 90.9-164.7-111-8.7-117.2 164.7h26.3z"/><path class="st6" d="M1494 982.3h14s106.4-45.5 119.5-66.9c12.9-21.5-92.9-14.1-133.5 66.9z"/><path class="st7" d="M1622.1 906.3c-22-6.3-95.8 11.4-128.2 76h6.2c.1 0 58.5-56.4 122-76z"/><linearGradient id="SVGID_1_" gradientUnits="userSpaceOnUse" x1="228" y1="1011.1" x2="1055.3" y2="1011.1"><stop offset="0" style="stop-color:#fff"/><stop offset=".531" style="stop-color:#000"/></linearGradient><path d="M837.4 1002.7h-47.9c-310.1 0-561.5 3.8-561.5 8.4s251.4 8.4 561.5 8.4c101.8 0 237.5 0 265.8-7.1-53-4.6-148.7-5.5-217.9-9.7z" style="opacity:.25;fill:url(#SVGID_1_);enable-background:new"/><path d="M1050.9 9.8H662.8c-42.9 0-77.8 34.9-77.8 77.8v847.1c0 42.9 34.9 77.8 77.8 77.8h388.1c42.9 0 77.8-34.9 77.8-77.8V87.6c-.1-42.9-35-77.8-77.8-77.8z" style="fill:#fff;stroke:#f06522;stroke-width:15;stroke-miterlimit:10"/><path class="st10" d="M898.8 921.3H812c-10.3 0-18.7 8.8-18.7 19.6s8.4 19.6 18.7 19.6H898.8c10.3 0 18.7-8.8 18.7-19.6s-8.4-19.6-18.7-19.6z"/><path class="st11" d="M900.5 172.2c-8.4-8.5-20.5-13-35.1-13h-.3c-18.5 0-34.1 6.8-45.3 19.6-10 11.5-15.6 26.9-15.7 43.3-.1 13.5 4.2 25 12.3 33.1 8.2 8.3 20.3 12.7 34.9 12.7h.2c19.6 0 35.8-6.9 46.9-20.1 9.3-11 14.6-26.3 14.7-41.9 0-13.8-4.3-25.5-12.6-33.7zM877.3 233c-5.7 8.7-13.9 13.4-23.7 13.4h-.1c-6.7 0-12.2-2.3-15.9-6.7-3.7-4.3-5.7-10.6-5.6-18.2 0-10.2 3-20.4 8.2-27.9 4-5.9 11.3-12.9 23-12.9h.1c14.1.1 21.9 8.7 21.8 24.3-.2 10.3-3 20.5-7.8 28zM758.6 159.7h-.3c-16.6 0-25.9 6-32 12.2l-6.4 29.1c5.6-12.1 15.3-18.8 27.6-18.8h.1c7 0 12.3 2.2 15.8 6.3 3.2 3.9 4.9 9.5 4.8 16.6 0 10.3-3 20.4-8.2 27.9-4.1 6-11.5 13-23.7 13h-.1c-7.6 0-13.3-2.3-16.9-6.8-3-3.7-4.5-8.8-4.6-15.1l-6.7 30.3c3.4 6 11.4 13.8 29.8 13.9h.3c18 0 33.2-7.1 43.9-20.6 9.5-12 14.8-28.3 14.9-45.8 0-25.1-15.3-42.1-38.3-42.2zM733.5 116.6h-42.2l-5 23.3h15.2l-27.4 125.7 26.5.1zM995.5 159.7h-.3c-16.6 0-25.9 6-32 12.2l-6.4 29.1c5.6-12.1 15.3-18.8 27.6-18.8h.1c7 0 12.3 2.2 15.8 6.3 3.2 3.9 4.9 9.5 4.8 16.6 0 10.3-3 20.4-8.2 27.9-4.1 6-11.5 13-23.7 13h-.1c-7.6 0-13.3-2.3-16.9-6.8-3-3.7-4.5-8.8-4.6-15.1l-6.7 30.3c3.4 6 11.4 13.8 29.8 13.9h.3c18 0 33.2-7.1 43.9-20.6 9.5-12 14.8-28.3 14.9-45.8 0-25.1-15.3-42.1-38.3-42.2zM970.4 116.6h-42.2l-5 23.3h15.2L911 265.6l26.5.1zM719.3 375.6l-2.6-69.4h12.2c0 21.5.6 49.3-.1 56.6h.1c3-8.9 18.5-40.2 26-56.6h11c.7 14.1 2.1 45.9 1.6 56h.1c3-8.9 12.9-29.7 24.4-56h12.2l-33.5 69.4H758c-.4-14.2-1.7-41.7-1.5-52.6h-.1c-4.1 11.8-17.7 38.5-24.4 52.6h-12.7zM844.3 344.9c0 12.6-7.3 31.7-28.4 31.7-13.7 0-20.4-8.5-20.4-21.1 0-14 8.8-32.4 28.1-32.4 12.1 0 20.7 7.2 20.7 21.8zm-36.6 10.7c0 7.6 3.4 11.7 9.4 11.7 10.6 0 15-13.9 15-23.4 0-7.4-3.1-11.5-9.5-11.5-10.3.1-14.9 13.9-14.9 23.2zM854.4 339.4c1.1-5.1 2.1-10.5 3-15.3h11.4c-.1 1.3-.7 5.6-1.6 9.9 3.6-6.6 8.9-10.9 17.5-10.9l-2.5 12c-9.5.3-16.4 6.2-18.8 17.6l-4.9 23h-11.8l7.7-36.3zM881.3 375.6l15.5-73.3h11.8l-15.5 73.3h-11.8zM964.7 302.3l-12.5 59.2c-1 4.7-2.1 9.4-2.9 14.1h-11.4c.1-1.8.5-4 1-6.8-3.3 4.9-8.2 7.8-15.7 7.8-11 0-17-8-17-20.3 0-15.5 9.3-33.2 27.2-33.2 7.8 0 12.5 3.5 13.6 6.3l5.8-27.1h11.9zm-46 52.7c0 7.6 3.1 11.6 9.2 11.6 9.1 0 13.8-7.9 15.9-18.7 1.9-9.4-.9-15-9.2-15-10.4.1-15.9 12.2-15.9 22.1z"/><path class="st12" d="m1274.2 458.8 2.3-19.2s-15.1-11-16.9-16.4c-1.8-5.5 3.2-20 3.2-20s-3.1-3.2-3.6-6 8.6-13.7 8.6-13.7 11.8-16.3 12.7-16.8c-3.2 16.3-3.7 36.1-3.7 36.1s3.1-10.1 9.3-12.2c6.2-2.1-3.4 21.7-5.7 24 7.3 10.9 18.3 20.9 18.3 20.9l7.8-7.8c.5 8.7 3.7 31 3.7 31h-36v.1z"/><path class="st11" d="m1262.8 468.4 6.4-15.6s15.1.5 26.5 1.2 17.3-1.2 17.3-1.2l6.6 15.6s-31.2 6.9-56.8 0z"/><linearGradient id="SVGID_00000096772140088405689620000007436727274544658836_" gradientUnits="userSpaceOnUse" x1="1186" y1="1012.52" x2="1351.7" y2="1012.52"><stop offset="0" style="stop-color:#fff"/><stop offset="1" style="stop-color:#000"/></linearGradient><path style="opacity:.25;fill:url(#SVGID_00000096772140088405689620000007436727274544658836_);enable-background:new" d="M1308.5 1004h-9.6c-62.4 0-112.9 3.8-112.9 8.4 0 4.6 50.6 8.4 112.9 8.4 20.5 0 36.3.6 52.8-.1-10.7-4.8-29.3-12.6-43.2-16.7z"/><linearGradient id="SVGID_00000005258150423770465270000017570565447092690323_" gradientUnits="userSpaceOnUse" x1="1074" y1="1035.7" x2="1243.1" y2="1035.7"><stop offset="0" style="stop-color:#fff"/><stop offset="1" style="stop-color:#000"/></linearGradient><path style="opacity:.25;fill:url(#SVGID_00000005258150423770465270000017570565447092690323_);enable-background:new" d="M1196.5 1019c-3.2 0-6.4-.1-9.6-.1-62.4 0-112.9 7.5-112.9 16.8s50.6 16.8 112.9 16.8c20.5 0 39.7-.8 56.2-2.2-10.6-9.2-32.7-22.9-46.6-31.3z"/><path d="M1312.3 1003s-9.8 1.1-20.8 0-3.7 7.5 9.1 10.7c12.8 3.2 14.8 1.7 21.3 2.2s31 8.3 32.9 2.8c1.9-5.5-11.5-15.8-11.5-15.8l-31 .1zM1212.9 1016s-8.2 1.1-22.4 1.9c-12.1.7-11.6 11.1 44.9 31.4 8.9 3.2 16.3.1 18.4-7 2.2-7-40.9-26.3-40.9-26.3z"/><path class="st12" d="M1372.8 718.9s-.9 9.6 0 14.1c5.9 9.6 6.4 14.6 0 22.4-6.4 7.8-6.8 12.3-11.2 14.1-4.3 1.8-5 8.2-9.9 0s1.7-58.5 1.7-58.5l19.4 7.9z"/><path class="st11" d="M1367.1 487.6s15.7 124.1 16.2 172.5c.5 48.4 0 60.7 0 60.7s-21 4.1-33.3 2.3c-6.8-1.8-8.7-42.4-8.7-42.4V502.2s12.3-21.5 25.8-14.6z"/><path d="M1367.1 487.6c-13.5-6.8-25.8 14.6-25.8 14.6v178.4s1.6 36.5 7.7 41.8c27.6-5.8 17.9-30 18.1-40.9.2-11.9-8.9-125.9-4.7-159.3 1.3-9.9 4.7-34.6 4.7-34.6z" style="fill:#db541f"/><path class="st10" d="M1223.4 690.2s-7.5 30.1-4.8 63 8.2 89 4.8 112.3c-3.4 23.3-13 132.1-10.3 152.6 4.8 16.4 23.3 25.3 33.5 28.7 10.3 3.4 12.3-21.9 11.6-59.5-.7-37.6 12.3-93.8 5.5-112.9 5.5-37 14.4-99.2 19.2-103.4 4.8-4.1 17.8-1.4 17.8-1.4s13 89 15.1 95.8 4.8 19.2 4.8 19.2-3.4 104.7-8.2 118.4c28.7 17.1 35.9 16.4 42.6 15.7 6-15.7 6-28.7 3.3-48.6 0-34.9-4.5-77.3-3.3-95.1s1.5-73.2 0-93.8c-1.5-20.5-.2-77.3-3.6-94.5-3.5-17-128 3.5-128 3.5z"/><path class="st12" d="M1109.5 462.5s-5-21.7-5.9-25.1c-10-15.5-16.9-31.9-16.9-31.9s11.2-24 14.1-26.9c5.2-3.7 27.4-18.7 20.8-8-5.9 8.4-6.4 10.1-6.4 10.1s13.9-5.6 14.6-4.9-11.2 12.1-11.2 12.1 10.6-.2 11.2 2.3c.7 2.5-10.1 5.9-10.1 5.9l.1 8.8s4.2 1.2 2 3.5c-2.3 2.3-10 3.2-10 3.2s7.5 7.8 4.8 18.5c1.6 9.1 4.1 23 4.1 23l-11.2 9.4z"/><path class="st16" d="M1118.4 354.5c-.1-.5-.3-1-.7-1.2-.4-.3-.9-.4-1.4-.2l-19.6 5.2c-.9.2-1.4 1.1-1.3 1.9l6.7 46.8c.1.5.3.9.7 1.2.3.2.6.3 1 .3h.4l18.1-4c.9-.2 1.4-1 1.4-1.9l-5.3-48.1z"/><path d="M1102.6 415s7.9-17.1 10.6-22.2-6.2-1-16.8 11.1c-2.1 7.4-1.4 14.6 6.2 11.1z" style="fill:#ff958a"/><path class="st11" d="m1120.7 453.1-25.3 19.1s32.5 101.3 36.9 110.9c4.4 9.6 83.5-58.5 83.5-58.5s3.4 86.9 4.1 110.2-6.8 66.4-6.8 66.4 73.6 10.6 92.4 12.7c18.8 2.1 56.1-13.7 56.1-13.7s-5.8-90.3-6.2-103c-.3-12.7-5.1-69.8 2.4-85.2 7.5-15.4 8.2-19.8 9.2-24.3 1-4.4-51.3-25.1-51.3-25.1h-50.6s-46.2 9.7-51 12.6-63 58-63 58-24.6-85.8-30.4-80.1z"/><path class="st18" d="M1306.6 427.8s19.2-21.9 22.1-35.1-8.5-29.7-14.8-36c-6.4-6.4-13.7-16.2-22.7-16.2-3.5 0 0 9.5 0 9.5s-11.1-6.7-4.5 8c-12.4-2.1-9.3 4.9-6.1 8.9-1.7 10.5-4.6 26.2-3.7 36.1 4.9-9 16.9-10.5 3.7 11.8 7.3 14.6 18.3 20.9 18.3 20.9l7.7-7.9z"/><path class="st16" d="M603.8 443.9c.1-.6.5-1 1-1.3s1.1-.3 1.6-.1l20.9 8.8c.9.4 1.4 1.4 1.1 2.3l-14.6 50.9c-.1.5-.5 1-1 1.2-.4.2-.8.2-1.1.2-.1 0-.3-.1-.4-.1l-19.4-7.2c-.9-.3-1.5-1.3-1.2-2.3l13.1-52.4z"/><linearGradient id="SVGID_00000007406438947186873120000008673739108529835905_" gradientUnits="userSpaceOnUse" x1="398.561" y1="1053.462" x2="536.461" y2="1053.462"><stop offset="0" style="stop-color:#fff"/><stop offset="1" style="stop-color:#000"/></linearGradient><path style="opacity:.25;fill:url(#SVGID_00000007406438947186873120000008673739108529835905_);enable-background:new" d="M526.6 1048.4c-9.5-1.2-33.2-4.5-26-5.5 6.3-.9 18.1-1.6 24.5-1.9-.4-1.5-.8-3-1.3-4.3-3.2 0-40.3 1.2-43.5 1.2-24.5.4-81.6 6.9-81.6 16.1 0 9.3 52.5 13.2 88.8 15.3 20.4 1.2 32.6 1.3 49.1-.1-6.9-5.9-8.7-13.6-10-20.8z"/><linearGradient id="SVGID_00000161613651381694842840000011760996864044504215_" gradientUnits="userSpaceOnUse" x1="271.4" y1="1053.946" x2="396.3" y2="1053.946"><stop offset="0" style="stop-color:#fff"/><stop offset="1" style="stop-color:#000"/></linearGradient><path style="opacity:.25;fill:url(#SVGID_00000161613651381694842840000011760996864044504215_);enable-background:new" d="M372.4 1057c-9.5-1.2-7.7-2.7-.6-3.7 6.3-.9 18.1-1.6 24.5-1.9-.4-1.5-.8-3-1.3-4.3-3.2 0-19.3-1.9-22.5-1.9-7.5 0-101.1.3-101.1 9.6.1 9.2 70.5 10.9 101 2.2z"/><path class="st21" d="M375.7 1024.2c-7.5 9.4-16 22.1-39.8 31.8-6 6 8.6 4.8 17.6 4.4 9.1-.3 25.8-4.8 29.2-7.9 3.4-3.1 5.8-21.2 7.9-23.3 1.7 14.7 2.1 22.2 2.1 22.2l3.4-.3s1.7-20.2 3.1-26.7.3-13-2.7-17.8c-3.1-4.6-8 1.6-20.8 17.6z"/><path class="st12" d="M401.9 876.8s-7.2 57-8.9 70.7c-1.7 13.7-6.9 42.9-10.9 57-5.4 23-20.2 32-18.1 36.1 4.1 7.1 12.5-5.2 18.1-11.4 6.1-6.7 10.3-9.7 14.2-12 3.9-2.3 2.2-11.4 2.2-11.4s11.6-40.2 15.5-49.7 29.3-50.6 22.7-74.8c6.6-28.7 7.2-35.1 7.2-35.1s-34.8-5-42 30.6z"/><path class="st21" d="M524.8 1015.9s-19 21.5 8.5 51.9c3 2.5 3.5 2.9 8.1-7.6 7-16.1.3-47.2-4.9-52.3-5.2-5.2-11.7 8-11.7 8z"/><path class="st12" d="M508.8 853.2s-5.6 18.9-2.5 27.7c3.1 8.9 17.3 115.2 17.1 128.6-4.3 14.1-.7 37.2 9 38.1s12.2-23.6 6.9-40.1c-1.2-36.5-1.4-83.3.1-100.8 1.6-17.6 2.7-44.3-2.4-55.7-5.2-11.4-17.7-17.6-17.7-17.6s-11.2 16.2-10.5 19.8z"/><path class="st18" d="M445 591.3c-24.6.2-39.6-27.6-45.3-48-6.4-22.8.7-45.2 14.6-64s6.1-33.8 10.7-59.3c4.6-25.6 19-37.2 37.4-38.4 18.4-1.1 40.6 16.1 44 44.5 3.3 28.4 10 40.3 22.3 56.4 15.9 21.2 39.9 107.8-83.7 108.8z"/><path class="st10" d="M429.7 662.9s-27.3 127.2-30 213.9c63-10 138.3-24.6 138.3-24.6s4.1-60.7 3.8-105.9c-.1-14.3-1.9-92.6-13.1-102.2-27.7 5.9-99 18.8-99 18.8z"/><path class="st12" d="M546.4 541.3s15.4 24.6 19.8 34.6c10.5-15.7 27.7-54.4 31.5-59.9-.3-9.2 0-17.8 0-17.8s-6.8-14-6.5-17.1 11 12 11 12-5.1-19.8-2.7-22.9c2.4-3.1 10.6 20.5 10.6 20.5s-2.4-29.1 0-30.5 7.5 28.4 8.2 40-12.7 22.2-13 24.3c-7.2 26.4-26.7 74.9-36.6 89-4.4 6.2-40-56.5-40-56.5s3.7-10.2 17.7-15.7zM397.4 570.2s-3.2-16-18.7-23.3c-19.2 26.9-36 61.5-37 67-.9 5.5 78 45.2 78 45.2s-4.8 15.7-4.8 20.8c0 5 2.5 31.3 4.8 33.5 2.3 2.3 5.2-23.7 5.2-23.7s3.4 10.3 6.6 10.7c3.2.5-3.9-27.8-3.9-27.8s3.9-12.6 3.9-20.3-57-45.2-59.8-47c10.2-14.1 25.7-35.1 25.7-35.1z"/><path d="M438.3 498.5s-30.8 10.5-34 12.3-25.6 36-25.6 36 10.5 6.8 18.7 23.3c11-13.7 16.4-21 16.4-21s17.8 47.5 24.4 61.6c-4.8 28.7-5.4 38-8 52.2 30.7 5.9 83.5-8.8 98.4-18.9-6.6-24.2-13.5-42-13-48.8s4.1-51.6 4.1-51.6l8.9 13.3s7.5-12.7 17.8-15.7c-5.7-22.7-18.9-42.8-20.8-47.3s-39.1.5-39.1.5l-48.2 4.1z" style="fill:#dadada"/><path class="st12" d="M455.4 467.4s3.1 18.8-2.7 24.3c-9.9 5.1-14.4 6.8-14.4 6.8s8.9 20.5 26 38.7c17.1-18.1 22.2-42.8 22.2-42.8s-9.2.3-13-1.4c-3.8-1.7-1.4-25.7-1.4-25.7h-16.7v.1z"/><path class="st12" d="M438.5 422.8s1.8 15.5 2.3 18.7c-5-4.6-8.2-.5-5.5 4.6 2.7 5 9.1 12.3 9.1 12.3s10 21 21.4 21 21.9-14.6 25.1-52.9c-8.2-5-14.1-12.3-14.1-12.3s-11 13.2-21 5c-10-8.3-18.4-5.4-17.3 3.6z"/><path d="M365 605.7s52.9 32.5 66.5 49.1c.1-.8.1-1.7.1-2.4 0-7.8-57-45.2-59.8-47 10-14.1 25.6-35.1 25.6-35.1L365 605.7z" style="fill:#ffd5d3"/><path d="M241.6 779.5c-10.5 2.2-19-13.9-42.6-7.6-23.6 6.3-37.7 53.3-4.8 68.4 32.9 15.2 35.6 40.1 32.1 58-3.5 17.8-22.2 71.3 79.9 54.9 15.7-4.5 49-51.8 20.1-80.8-28.9-28.9-53.5-22.7-47.2-48.8 6.3-26.1-8.7-50.1-37.5-44.1z" style="fill:#b2b0d7"/><path class="st7" d="M241.6 779.5c-10.5 2.2-19-13.9-42.6-7.6-23.6 6.3-37.7 53.3-4.8 68.4 32.9 15.2 35.6 40.1 32.1 58-3.5 17.8-22.2 71.3 79.9 54.9 15.7-4.5 49-51.8 20.1-80.8-28.9-28.9-53.5-22.7-47.2-48.8 6.3-26.1-8.7-50.1-37.5-44.1z"/><path class="st25" d="M323.9 977.3c-.3-.6-15.3-29.8-37.7-67.9l24-39.4c.3-.5.1-1.1-.3-1.3-.5-.3-1.1-.1-1.3.3L285 907.5c-10.9-18.4-23.5-38.9-36.9-59.1l9.2-54.6c.1-.5-.3-1-.8-1.1s-1 .3-1.1.8l-8.9 52.6c-14.7-22-30.5-43.7-46.2-62.3-.5-.6-1.4-.6-1.9-.2-.6.5-.6 1.4-.2 1.9 9.8 11.6 19.7 24.5 29.3 37.9l-37.1-7.8c-.5-.1-1 .2-1.1.8-.1.5.2 1 .8 1.1l39.2 8.2c26.5 37.2 51 78.3 68.1 108.5h-60.1c-.5 0-1 .4-1 1 0 .5.4 1 1 1h61.2c14.1 24.9 22.8 41.9 23.1 42.4.2.5.7.7 1.2.7.2 0 .4 0 .6-.1.5-.4.8-1.3.5-1.9z"/><path class="st7" d="M354.1 921.2c24.8 6.8 50.4-23.7 35.7-49.4-14.7-25.7 14.1-22.5 10.3-40.8-3.8-18.3-15.2-27.4-5-35.8 10.3-8.4 6.9-48.3-18.6-50.4-25.5-2.1-6.5 35.1-4.9 43.4 1.6 8.2-2 24.3-18.2 27.8s-20 21.8-6 34.7-22.6 13.1-24.4 30.5c-1.8 17.4 2.2 32.1 31.1 40z"/><path class="st25" d="M394.6 829.7c-.3-.2-.6 0-.8.3-3.3 6.7-15.3 12.9-19.5 15 .3-1 .5-2 .8-3 4.8-18.8 9.4-36.9 9.4-54.4 4.6-6.4 5.5-13.8 6.2-19.3.2-1.4.3-2.7.5-3.8.1-.3-.2-.6-.5-.7-.3-.1-.6.2-.7.5-.2 1.2-.4 2.5-.5 3.9-.7 5.2-1.5 11.6-5.1 17.4-.3-10.8-2.5-21.3-7.7-31.5-.2-.5-.8-.7-1.3-.4-.5.2-.7.8-.4 1.3 13.5 26.6 6.1 55.7-1.8 86.6l-3 11.7c-2.8-5.1-10.6-19.9-12.3-25.7-.1-.3-.4-.5-.7-.4-.3.1-.5.4-.4.7 1.9 6.5 11 23.4 13 27-2.2 9.1-4.2 18.4-5.5 27.8l-10.8-16.9c-.2-.3-.5-.4-.8-.2s-.3.5-.2.8l11.5 18v.2c-6.1 46.9-25.9 92.3-26.1 92.7-.2.5 0 1.1.5 1.3.1.1.3.1.4.1.4 0 .7-.2.9-.6.2-.4 16.2-37.2 24-78.8 3.5-1 18.6-5.7 27.4-14.2.2-.2.2-.6 0-.8s-.6-.2-.8 0c-8.2 7.9-22.1 12.5-26.4 13.7.8-4.4 1.5-8.8 2.1-13.2 1.7-13.1 4.8-26 8-38.6 3.3-1.5 17.2-8.3 21-16 .1 0-.1-.4-.4-.5z"/><path class="st6" d="M327.7 953.3s27.7-17.2 28.6-53.3-33.5-29-28-55.3c5.4-26.3 24.7-57.2 2.1-73.7s-52.3 1.7-37.2-30.2c13.6-28.7-31.2-49.4-47.3-43.1-16 6.2-23.1 28.8 1 49.4 10.8 9.3 5.4 20.6-5.4 33-11.6 13.4-20.7 32.7 2.4 44.4 24.7 12.5-16.1 23.7-6.7 46.4 9.4 22.7 47.8 11.9 40.2 29.6-8.5 19.7-55.3 40 50.3 52.8z"/><path class="st25" d="M338.3 886.5c-.4-.3-1-.3-1.4.1l-17.6 20.7c-5.5-24.2-12.8-52.7-22.1-82.5 3.1-4 19.5-25.6 26.3-39.8.2-.5 0-1.1-.5-1.3s-1.1 0-1.3.5c-6.2 13.1-20.8 32.5-25.3 38.4-11.6-36.7-26.3-75.2-44.4-109.6-.4-.7-1.2-.9-1.8-.6-.7.4-.9 1.2-.6 1.9 14.6 27.7 26.9 58 37.2 87.9-7.5-2.5-30.2-9.9-38.9-11.6-.5-.1-1 .2-1.1.8-.1.5.2 1 .8 1.1 9.1 1.8 34.7 10.3 40.1 12 7.7 22.7 14.3 45.2 19.8 66-8.9-1.7-44.3-8.6-56.4-10.8-.5-.1-1 .3-1.1.8s.2 1 .8 1.1c12.6 2.3 50.4 9.7 57.3 11 5.3 20.4 9.6 39.1 12.9 55l-44.7-3.2c-.5-.1-1 .4-1 .9s.4 1 .9 1l45.2 3.3c6.1 29.1 8.8 48 8.9 48.5.1.7.7 1.2 1.4 1.2h.2c.7-.1 1.3-.8 1.2-1.6-.1-.6-4.1-28.1-13.1-68l18.5-21.8c.2-.5.2-1.1-.2-1.4z"/><g style="opacity:.5"><path class="st25" d="M666.6 512.7h-8v-86.8h82.8v8.2h-74.8zM1055 512.7h-8v-78.6h-74.8v-8.2h82.8zM741.4 822.4h-82.8v-78.6h8v70.4h74.8zM1055 822.4h-82.8v-8.2h74.8v-70.4h8z"/></g><path d="M945 652.8h23.5V641h11.8v23.5h23.5v11.8h-11.5v11.8h23.3V700h-11.9v11.7H992v-11.6h-11.6v23.5h11.5v11.7h-11.7v11.8h-11.9v11.7h-11.7v-11.7h-46.9v-11.8h-47v-11.7h23.5v-46.9h35.2v11.5h47v-23.3H945v-12.1zm23.3 82.1v-35.1h-35.1v35.1h35.1zm-70.2-46.8v35.1h11.5v-35.1h-11.5zM768.6 535.2h-82v-82h82v82zM699 522.8h57.3v-57.3H699v57.3zM945 535.2v-82h82v82h-82zm12.4-69.6v57.3h57.3v-57.3h-57.3zM686.7 711.6h82v82h-82v-82zm69.5 69.6v-57.3h-57.3v57.3h57.3z"/><path d="M815.8 770.3c0-3.9 0-7.8-.1-11.7v.1c7.2 0 14.3-.1 21.4-.1h2.2v-11.8h23.5v11.7h11.7v-11.7h35.2v11.9h35.1v11.7h-11.5v11.8h23.4v11.7h-35.1v-11.7h-11.8v-11.7h-58.7v23.3h-23.5v-11.5h11.5v-11.9c-7.7-.2-15.5-.2-23.3-.1zM804 547.1v-23.5h11.8v11.8h11.8v11.7h11.8v-11.7h11.7v-11.8h-11.7v-11.7H851v-11.7h-11.6v-11.9h23.5v11.8h11.9v11.8h-11.7v46.9h11.7v-11.5h11.7v23.3h-46.7v-11.7h-23.5v-11.8H804zM991.9 605.9h23.4v-11.7h-11.5v-11.8h11.5v-11.7h-11.5v-23.5h11.6v11.7h11.7v117.4h-11.6V653h-11.7v-23.5h11.5v-11.7h-23.4c.1-4.2.1-8.1 0-11.9zM710 582.3v-11.7h35.1v-11.8h-11.5V547h46.9v11.8h11.8v11.8h11.8v11.8h-23.5v-11.8h-11.8v-11.7h-11.6v11.6h11.7c0 3.9 0 7.9-.1 11.8h-23.5v23.5h-11.7v-23.5H710zM757 629.3v-11.8h23.5v-11.8h23.4v58.6h-23.4v-11.7h11.7v-23.4h-11.6v23.4c-7.9 0-15.7 0-23.5-.1v-11.8h11.7v-11.8c-4.1.3-8 .3-11.8.4zM710 641.1v-35.2.1h11.8v23.4h11.8v46.9H722v-11.5h-35.1v-23.5h23.4V653h11.6v-11.6c-4.2-.3-8.1-.3-11.9-.3zM1015.3 723.2v11.7h11.7v11.7h-11.5v11.8h11.5v23.5h-11.6v11.7h-11.7v-23.5h-11.9v-11.8H980v-11.7h23.5v-23.5c4.1.1 8 .1 11.8.1z"/><path d="M780.4 699.9h11.8v11.6H804v11.8h11.6c.1.4.2.8.2 1.2v33.4c0 .3 0 .5-.1.8v-.1h-23.5v-11.8h-11.8c.1-15.8.1-31.3 0-46.9.1-.1 0 0 0 0zM945.1 558.9v-11.7h23.4v11.6H992v23.5h-23.5v23.5h-11.8v-47c-3.9 0-7.8 0-11.6.1-.1 0 0 0 0 0zM804 488.3h-11.8v-11.7h-11.7v-11.8h11.6v-11.7h58.7v11.5h-23.5v11.9h-11.8v-11.6h-11.7c.2 8 .2 15.7.2 23.4zM933.1 500h-11.6v-23.4h-11.7v-11.8h-11.7v-11.7h35.1c-.1 15.7-.1 31.2-.1 46.9zM862.6 688h11.7v23.5h-11.7v11.8h-23.5v-11.7h11.8v-11.8h11.8c0-4.1 0-8-.1-11.8zM768.7 676.3h11.7v23.5-.1h-35.1v-23.5H757v11.7h11.8c-.1-4-.1-7.8-.1-11.6z"/><path d="M933.2 558.9h11.9-.1V594h-11.7v11.7h-11.8v-23.3h11.7v-23.5c0-.1 0 0 0 0zM851 699.7h-11.7v-11.8h-11.8v-11.7h35.2v11.7h-11.8c.1 4.2.1 8 .1 11.8zM945 652.7h-35.1v-23.4h11.6v11.6H945v11.8c0 .1 0 0 0 0zM886.3 476.5h-23.5v-23.3h23.5c-.1 7.8-.1 15.6 0 23.3zM710 582.2c0 7.9 0 15.8-.1 23.6v-.1h-23.4v-23.5c8 .1 15.7.1 23.5 0 0 .1 0 0 0 0zM780.6 547.1V512h11.7v35.1h-11.7zM898 523.5h-11.8c0-7.8 0-15.7-.1-23.5v.1h23.5v11.7h-11.8c.2 4.1.2 8 .2 11.7zM815.7 770.2v23.4h-23.4V782h11.6v-11.8c4.1.1 8 .1 11.8 0 .1.1 0 0 0 0zM991.9 770.2v23.4h-23.5v-11.7h11.8v-11.8c4 .2 7.9.2 11.7.1zM780.5 582.2v23.5H757v-11.8h11.8v-11.7c3.8.1 7.8.1 11.7 0zM980 605.7c0 7.9 0 15.8.1 23.5h-11.8v-23.5c4 .1 7.9.1 11.7 0 .1.1 0 0 0 0zM827.4 488.3V500h-23.5v-11.7h23.5zM839.3 746.7h-11.7v-23.5h11.7c-.1 7.8-.1 15.7 0 23.5zM1015.3 699.8h11.7v23.5h-11.7c.1-7.8.1-15.7 0-23.5zM827.5 687.9v23.4h-11.7v-23.4c3.8.1 7.8.1 11.7 0zM709.9 699.7h-23.3v-11.6h23.3v11.6zM815.8 687.9h-23.4v-11.6h23.4c-.1 3.9-.1 7.8 0 11.6-.1.1 0 0 0 0zM956.7 629.2h-11.1c-.2 0-.4 0-.6-.1v-23.4h11.7v23.5zM933.2 558.8h-11.7v-11.6h11.6c.1 3.9.1 7.8.1 11.6 0 .1 0 0 0 0zM909.7 781.9v11.7h-11.6V782c3.8-.1 7.7-.1 11.6-.1zM886.1 793.6h-11.5v-11.5h11.5v11.5zM686.7 629.2v-11.5h11.5v11.5h-11.5zM757 641h-11.7v-11.7H757V641zM968.4 641h-11.8v-11.8h11.8V641zM980.1 629.3h11.7V641h-11.7c.1-3.9.1-7.8 0-11.7zM839.3 488.3h-11.8v-11.8h11.8c-.1 4-.1 7.9 0 11.8-.1.1 0 0 0 0zM886.3 488.4v-12 .1h11.6v11.8c-3.8.1-7.7.1-11.6.1z"/><path d="M968.4 781.9h-11.8v-11.7h11.7c.1 4 .1 7.9.1 11.7zM909.6 570.6h-11.5V559h11.5v11.6zM874.5 500.1v-11.7h11.8-.1c0 3.9-.1 7.9-.1 11.8v-.1h-11.6c-.1 0 0 0 0 0zM815.8 523.6v-11.7h11.7v11.7c-3.9-.1-7.9-.1-11.7 0zM921.5 523.5h-11.8v-11.8h11.8c-.1 4.1-.1 8 0 11.8zM757 652.7v11.8h-11.7v-11.7c4 0 7.9 0 11.7-.1zM756.9 664.6h11.8v11.8h-11.8c.1-4 .1-7.9 0-11.8.1-.1 0 0 0 0zM757 617.5h-11.8v-11.8H757v11.8zM792.2 547.1H804v11.8h-11.8c.1-4 .1-7.9 0-11.8z"/><path d="M815.7 558.8v11.8h-11.8v-11.8h11.8zM733.5 699.7H722v-11.6h11.5v11.6zM921.4 523.6h11.7v11.6h-11.6c-.1-3.9-.1-7.8-.1-11.6.1-.1 0 0 0 0zM909.6 523.5v11.7h-11.7v-11.7h11.7zM886.2 523.5v11.7h-11.6v-11.6c3.9-.1 7.8-.1 11.6-.1.1 0 0 0 0 0zM827.4 523.6h11.8v11.8h-11.8c.1-4 .1-7.9 0-11.8zM992 605.8c-4 0-7.9 0-11.9-.1h.1v-11.6H992c-.1 3.9-.1 7.8 0 11.7-.1.1 0 0 0 0z"/><path class="st1" d="M968.4 782v-11.7h-11.7V782h-23.4v-11.8h11.5v-11.7h-35.1v-11.9h46.9v11.7h11.7v-11.7h11.9v11.7H992v11.8h-11.7v11.8c-4.2.1-8.1.1-11.9.1z"/><path class="st1" d="M839.2 746.8v-23.5h23.5V735h47v11.8h-35.2v11.7h-11.7v-11.7h-23.6zM1015.4 699.7v23.5h-11.7v23.5h-23.5v-11.8h11.7v-11.7h-11.5v-23.5H992v11.6h11.7v-11.7c3.9.1 7.8.1 11.7.1zM968.3 734.9h-35.1v-35.1h35.1v35.1zm-23.2-23.3v11.6h11.5v-11.6h-11.5zM898.1 688.1h11.5v35.1h-11.5v-35.1zM699 522.8v-57.3h57.3v57.3H699zm11.1-11.1h35.1v-35.1h-35.1v35.1zM957.4 465.6h57.3v57.3h-57.3v-57.3zm46.2 46.2v-35.1h-35.1v35.1h35.1zM756.2 781.2h-57.3v-57.3h57.3v57.3zm-46-46.2v35.1h35.1V735h-35.1zM815.8 558.9H804v-11.8h11.8v11.8zM827.5 523.5v11.8h-11.8v-11.8h11.8zM827.4 535.3h11.8V547h-11.8v-11.7zM839.2 535.3v-11.8h11.7v11.8h-11.7zM757 605.9h-11.8v-23.5h23.5v11.7h-11.8c.1 4 .1 7.9.1 11.8zM780.6 582.3h-11.8c0-3.9 0-7.9.1-11.8h11.8c-.1 4-.1 7.9-.1 11.8zM804 558.8v11.8h-11.8v-11.8H804zM768.8 570.6h-11.7V559h11.6c0 3.8 0 7.7.1 11.6-.1 0 0 0 0 0zM792.3 547v11.8h-11.8V547h11.8z"/><path class="st1" d="M756.9 617.6v-11.8h23.5v11.8h-23.5zM780.6 652.8v-23.4h11.6v23.4h-11.6c-.1-.1 0 0 0 0zM756.9 641.1v-11.8h11.7v11.8h-11.7zM710 641.1h11.7v11.6h-11.6c-.1-3.9-.1-7.8-.1-11.6 0-.1 0 0 0 0zM827.5 476.5v11.8H804v-23.4h11.7v11.6h11.8zM851 699.8V688h11.8v11.8H851zM756.9 676.2h11.8v11.7h-11.8v-11.7zM909.7 523.6h-11.8v-11.8h11.8v11.8z"/><path d="M945.1 711.6h11.5v11.6h-11.5v-11.6zM710.1 511.7v-35.1h35.1v35.1h-35.1zM1003.6 511.8h-35.1v-35.1h35.1v35.1zM710.2 735h35.1v35.1h-35.1V735z"/><path class="st28" d="M865.4 611.6c-1.4-1.5-3.5-2.2-6.1-2.2h-.1c-3.2 0-5.9 1.2-7.8 3.4-1.7 2-2.7 4.6-2.7 7.5 0 2.3.7 4.3 2.1 5.7 1.4 1.4 3.5 2.2 6 2.2 3.4 0 6.2-1.2 8.1-3.5 1.6-1.9 2.5-4.5 2.5-7.2.2-2.5-.6-4.5-2-5.9zm-4 10.5c-1 1.5-2.4 2.3-4.1 2.3-1.2 0-2.1-.4-2.7-1.2-.6-.7-1-1.8-1-3.1 0-1.8.5-3.5 1.4-4.8.7-1 2-2.2 4-2.2 2.4 0 3.8 1.5 3.8 4.2-.1 1.7-.6 3.5-1.4 4.8zM840.9 609.4c-2.9 0-4.5 1-5.6 2.1l-1.1 5c1-2.1 2.6-3.2 4.8-3.2 1.2 0 2.1.4 2.7 1.1.6.7.8 1.6.8 2.9 0 1.8-.5 3.5-1.4 4.8-.7 1-2 2.3-4.1 2.3-1.3 0-2.3-.4-2.9-1.2-.5-.6-.8-1.5-.8-2.6l-1.2 5.2c.6 1 2 2.4 5.1 2.4 3.1 0 5.7-1.2 7.6-3.6 1.6-2.1 2.6-4.9 2.6-7.9.1-4.3-2.5-7.3-6.5-7.3zM836.6 602h-7.3l-.9 4h2.7l-4.8 21.7h4.6zM881.8 609.4c-2.9 0-4.5 1-5.6 2.1l-1.1 5c1-2.1 2.6-3.2 4.8-3.2 1.2 0 2.1.4 2.7 1.1.6.7.8 1.6.8 2.9 0 1.8-.5 3.5-1.4 4.8-.7 1-2 2.3-4.1 2.3-1.3 0-2.3-.4-2.9-1.2-.5-.6-.8-1.5-.8-2.6l-1.2 5.2c.6 1 2 2.4 5.1 2.4 3.1 0 5.7-1.2 7.6-3.6 1.6-2.1 2.6-4.9 2.6-7.9.1-4.3-2.5-7.3-6.5-7.3zM877.5 602h-7.3l-.9 4h2.6l-4.7 21.7h4.6zM834.1 646.7l-.4-12h2.1c0 3.7.1 8.5 0 9.8.5-1.5 3.2-6.9 4.5-9.8h1.9c.1 2.4.4 7.9.3 9.7.5-1.5 2.2-5.1 4.2-9.7h2.1l-5.8 12h-2.2c-.1-2.5-.3-7.2-.3-9.1-.7 2-3.1 6.7-4.2 9.1h-2.2zM855.7 641.4c0 2.2-1.3 5.5-4.9 5.5-2.4 0-3.5-1.5-3.5-3.6 0-2.4 1.5-5.6 4.8-5.6 2.1-.1 3.6 1.2 3.6 3.7zm-6.3 1.8c0 1.3.6 2 1.6 2 1.8 0 2.6-2.4 2.6-4 0-1.3-.5-2-1.6-2-1.8.1-2.6 2.4-2.6 4zM857.5 640.4c.2-.9.4-1.8.5-2.6h2c0 .2-.1 1-.3 1.7.6-1.1 1.5-1.9 3-1.9l-.4 2.1c-1.6.1-2.8 1.1-3.2 3l-.8 4h-2l1.2-6.3zM862.1 646.7l2.7-12.7h2l-2.7 12.7h-2zM876.5 634l-2.2 10.2c-.2.8-.4 1.6-.5 2.4h-2c0-.3.1-.7.2-1.2-.6.8-1.4 1.3-2.7 1.3-1.9 0-2.9-1.4-2.9-3.5 0-2.7 1.6-5.7 4.7-5.7 1.3 0 2.2.6 2.3 1.1l1-4.7h2.1v.1zm-8 9.2c0 1.3.5 2 1.6 2 1.6 0 2.4-1.4 2.7-3.2.3-1.6-.1-2.6-1.6-2.6-1.7 0-2.7 2-2.7 3.8z"/></svg>
