<svg xmlns="http://www.w3.org/2000/svg" width="59" height="69.778" class="bploan_svg"><defs><style>.bploan_svg .a{fill:#eea884}.bploan_svg .b{fill:#f7be9d}.bploan_svg .c{fill:#162b75}.bploan_svg .d{fill:#f26522}.bploan_svg .e{fill:#ebeef2}</style></defs><path class="a" d="m48.195 51.219-1.5-12.175-2.808.346-5.445-3.064a3.282 3.282 0 0 0-1.911-.408l-8.6.8a3.281 3.281 0 0 0-2.534 1.619l-6.06 10.43a1.441 1.441 0 0 0 .737 2.072l.248.094a5.371 5.371 0 0 0 1.457.325l-.768.669-1.536 1.338-4.369 3.727a1.866 1.866 0 0 0-.181 2.634l.443.508a2.4 2.4 0 0 0 3.384.231l1.67 1.915a2.394 2.394 0 0 0 3.384.231l1.668 1.915a2.4 2.4 0 0 0 3.386.233l.906.783a2.4 2.4 0 0 0 3.386.232l1.232-1.075 10.359-8.068.011-.01h4.087Z"/><path class="a" d="m43.758 53.374-.011.01-10.359 8.068-1.232 1.075a2.4 2.4 0 0 1-3.385-.233l-.907-.783a2.4 2.4 0 0 1-3.386-.233l-1.668-1.915a2.394 2.394 0 0 1-3.384-.231l-1.67-1.915a2.4 2.4 0 0 1-2.971.141 1.865 1.865 0 0 0 .148 2.257l.443.508a2.4 2.4 0 0 0 3.384.231l1.67 1.915a2.395 2.395 0 0 0 3.384.231l1.668 1.915a2.4 2.4 0 0 0 3.386.233l.906.783a2.4 2.4 0 0 0 3.386.233l1.232-1.075 10.359-8.068.011-.01h4.087l-.452-3.673Z"/><path class="b" d="m45.645 58.639-5.55-4.786-1.544-1.33-1.1-.951-4.748-4.093.548-4.668a3.222 3.222 0 0 0-2.34-3.481L20.56 36.466a2.4 2.4 0 0 0-2.771 1.217l-1.3 2.541-5.587-.379-1.438 12.181-.622 5.294 5.439.362.011.01 11.362 9.794 1.238 1.068a2.4 2.4 0 0 0 3.385-.251l1.657-1.923a2.4 2.4 0 0 0 3.384-.251l1.658-1.924a2.395 2.395 0 0 0 3.382-.25l1.659-1.924a2.4 2.4 0 0 0 3.383-.25l.441-.51a1.867 1.867 0 0 0-.196-2.632Z"/><path class="b" d="m45.644 58.64-1.69-1.458a1.982 1.982 0 0 1-.082 2.485l-.468.542a2.547 2.547 0 0 1-3.591.265l-1.761 2.043a2.541 2.541 0 0 1-3.59.265l-1.76 2.043a2.547 2.547 0 0 1-3.593.267l-1.759 2.041a2.532 2.532 0 0 1-1.207.778l.749.646a2.4 2.4 0 0 0 3.384-.251l1.657-1.923a2.4 2.4 0 0 0 3.385-.251l1.657-1.925a2.394 2.394 0 0 0 3.382-.25l1.659-1.924a2.4 2.4 0 0 0 3.382-.25l.44-.51a1.866 1.866 0 0 0-.194-2.633Z"/><path class="b" d="m42.579 61.392-3.041-2.622a.864.864 0 1 0-1.129 1.309l3.036 2.618.573-.664a2.389 2.389 0 0 0 .751.437.865.865 0 0 0-.19-1.078ZM37.717 64.645a.864.864 0 0 0-.18-1.093l-2.732-2.355a.864.864 0 1 0-1.129 1.309l2.732 2.355.564-.655a2.394 2.394 0 0 0 .745.439Z"/><path class="a" d="m14.564 57.671-.658.869a2.15 2.15 0 0 0 .416 3.012 2.15 2.15 0 0 0 3.012-.416l.658-.869a2.15 2.15 0 0 0-.416-3.012 2.15 2.15 0 0 0-3.012.416ZM18.573 59.501l-1.24 1.637a2.15 2.15 0 0 0 .416 3.012 2.15 2.15 0 0 0 3.012-.416l1.24-1.637a2.15 2.15 0 0 0-.416-3.012 2.15 2.15 0 0 0-3.012.416ZM22.452 61.503l-1.689 2.231a2.15 2.15 0 0 0 .416 3.012 2.15 2.15 0 0 0 3.012-.416l1.69-2.231a2.15 2.15 0 0 0-.416-3.012 2.15 2.15 0 0 0-3.013.416Z"/><path class="a" d="m25.977 63.965-1.788 2.361a2.15 2.15 0 0 0 .416 3.012 2.15 2.15 0 0 0 3.012-.416l1.788-2.361a2.15 2.15 0 0 0-.416-3.012 2.15 2.15 0 0 0-3.012.416ZM43.891 39.384l-5.445-3.064a3.281 3.281 0 0 0-1.911-.408l-8.6.8a3.281 3.281 0 0 0-2.535 1.619l-6.059 10.43a1.441 1.441 0 0 0 .737 2.072l.248.094a5.388 5.388 0 0 0 6.176-1.757l2.322-3.021s5.581 6.462 11.725-1.084"/><path class="c" d="m58.997 58.136-2.848-23.133a.864.864 0 0 0-.963-.752l-6.659.82a3.164 3.164 0 0 0-2.75 3.523l2.287 18.576a3.158 3.158 0 0 0 3.523 2.751l6.659-.82a.865.865 0 0 0 .751-.965Z"/><path class="c" d="m58.993 58.134-.312-2.539a.9.9 0 0 1-.637.39l-6.98.859a3.355 3.355 0 0 1-.407.025 3.322 3.322 0 0 1-2.829-1.595l.233 1.893a3.159 3.159 0 0 0 3.522 2.75l6.659-.82a.864.864 0 0 0 .751-.963Z"/><path class="d" d="m10.477 35.068-6.659-.82a.864.864 0 0 0-.963.752L.007 58.134a.864.864 0 0 0 .752.963l6.659.82a3.2 3.2 0 0 0 .388.024 3.165 3.165 0 0 0 3.134-2.774l2.287-18.576a3.164 3.164 0 0 0-2.75-3.523Z"/><path class="d" d="m.007 58.134.313-2.539a.9.9 0 0 0 .637.39l6.98.859a3.358 3.358 0 0 0 .407.025 3.32 3.32 0 0 0 2.829-1.595l-.233 1.893a3.164 3.164 0 0 1-3.134 2.774 3.2 3.2 0 0 1-.389-.024l-6.659-.82a.864.864 0 0 1-.751-.963Z"/><g transform="translate(3.767 52.759)"><circle class="e" cx="1.671" cy="1.671" r="1.671" transform="translate(48.031)"/><circle class="e" cx="1.671" cy="1.671" r="1.671"/></g><path class="d" d="M29.052.004a15.939 15.939 0 0 0-15.939 15.939 15.939 15.939 0 0 0 15.939 15.939 15.939 15.939 0 0 0 15.939-15.939A15.957 15.957 0 0 0 29.052.004Z"/><path class="f" d="M2280.476 29.032a2.98 2.98 0 0 1-2.19-.817 3.062 3.062 0 0 1-.828-2.284 6.905 6.905 0 0 1 .251-1.823 5.569 5.569 0 0 1 .754-1.666 4.123 4.123 0 0 1 1.268-1.215 3.384 3.384 0 0 1 1.813-.471 2.983 2.983 0 0 1 2.19.817 3.067 3.067 0 0 1 .828 2.284 7.358 7.358 0 0 1-.241 1.865 5.517 5.517 0 0 1-.733 1.666 3.774 3.774 0 0 1-1.268 1.194 3.6 3.6 0 0 1-1.844.45Zm2.263-5.322a2.336 2.336 0 0 0-.251-1.132.936.936 0 0 0-.9-.461 1.567 1.567 0 0 0-1.142.44 3.08 3.08 0 0 0-.7 1.058 5.759 5.759 0 0 0-.356 1.3 7.8 7.8 0 0 0-.1 1.163 2.153 2.153 0 0 0 .272 1.163.984.984 0 0 0 .9.43 1.532 1.532 0 0 0 1.132-.44 3.159 3.159 0 0 0 .691-1.058 5.772 5.772 0 0 0 .356-1.3 7.829 7.829 0 0 0 .097-1.163Zm6.261-3.164h1.53l-8.382 15.674h-1.488Zm.712 15.464a2.981 2.981 0 0 1-2.19-.817 3.065 3.065 0 0 1-.827-2.284 6.914 6.914 0 0 1 .251-1.823 5.565 5.565 0 0 1 .755-1.666 4.126 4.126 0 0 1 1.268-1.215 3.385 3.385 0 0 1 1.813-.471 2.982 2.982 0 0 1 2.19.817 3.066 3.066 0 0 1 .828 2.284 7.354 7.354 0 0 1-.241 1.865 5.534 5.534 0 0 1-.733 1.666 3.778 3.778 0 0 1-1.268 1.194 3.61 3.61 0 0 1-1.842.45Zm2.263-5.322a2.336 2.336 0 0 0-.251-1.132.936.936 0 0 0-.9-.461 1.532 1.532 0 0 0-1.132.44 3.3 3.3 0 0 0-.7 1.058 5.44 5.44 0 0 0-.366 1.3 7.8 7.8 0 0 0-.1 1.163 2.217 2.217 0 0 0 .262 1.163.979.979 0 0 0 .911.429 1.532 1.532 0 0 0 1.132-.44 3.16 3.16 0 0 0 .691-1.058 5.763 5.763 0 0 0 .356-1.3 7.824 7.824 0 0 0 .101-1.162Z" transform="translate(-2256.707 -12.8)" style="fill:#fff"/></svg>
