<svg xmlns="http://www.w3.org/2000/svg" width="47.001" height="47.001"><path class="a" fill="#1f276c" d="M47 31.808a15.239 15.239 0 0 0-8.357-13.57 20.723 20.723 0 0 1-20.405 20.405 15.2 15.2 0 0 0 21.3 6.245l7.4 2.046-2.046-7.4A15.138 15.138 0 0 0 47 31.808Z"/><path class="b" fill="#ea5a0b" d="M35.893 17.947a17.947 17.947 0 1 0-33.4 9.122L.066 35.827 8.824 33.4a17.95 17.95 0 0 0 27.069-15.453Zm-20.7-4.177h-2.754a5.508 5.508 0 1 1 9.225 4.065l-2.34 2.141v2.148H16.57v-3.36L19.8 15.8a2.726 2.726 0 0 0 .9-2.033 2.754 2.754 0 0 0-5.508 0Zm1.377 11.107h2.754v2.754H16.57Z"/></svg>
