<svg version="1.1" id="Layer_1" xmlns="http://www.w3.org/2000/svg" x="0" y="0" viewBox="0 0 1080 1080" style="enable-background:new 0 0 1080 1080" xml:space="preserve"><style>.st3{fill:#25326a}.st4{fill:#f6bd9b}</style><circle cx="544.5" cy="540" r="240.3" style="fill:#f48440"/><path d="M544.5 275.7c-146 0-264.3 118.3-264.3 264.3s118.3 264.3 264.3 264.3S808.8 686 808.8 540c-.2-145.9-118.4-264.2-264.3-264.3zm0 480.6c-119.4 0-216.3-96.8-216.3-216.3S425 323.7 544.5 323.7 760.7 420.6 760.7 540c-.1 119.4-96.9 216.1-216.2 216.3z" style="fill:#ef6825"/><path d="M469.1 428.8h149.4c.8.1 1.3.5 1.3 1.3v14.2c0 .8-.4 1.3-1.3 1.3h-56.2v1.3c8 4.3 14.2 13.2 18.6 26.5l.6 4.6h37c.8.1 1.3.5 1.3 1.3v14.2c0 .8-.4 1.3-1.3 1.3H583c0 15.9-9.7 31.4-29.2 46.4C536.5 551 524.2 556 517 556c0 .4-.4.6-1.3.6l80.2 103.9v1.3h-30.5c-.3 0-31.3-40.2-93-120.7v-.6h9.6c34.1 0 54.6-12.3 61.4-36.8.4-2.9.6-5.3.6-7.1v-1.9h-75c-.8 0-1.3-.4-1.3-1.3v-14.2c.1-.8.5-1.3 1.3-1.3h74.4c-2.5-9.6-7.9-17.4-16.1-23.4-11.4-6-21.7-9-31.1-9H469c-.8 0-1.3-.4-1.3-1.3V430c.2-.7.7-1.2 1.4-1.2z" style="fill:#f8f1f1"/><path id="Path_99_57_" class="st3" d="M539.8 250.8c-10.2 0-19.2-8.5-19.2-19.2V19.9c0-10.2 8.5-19.2 19.6-19.2 10.2 0 19.2 8.5 19.2 19.2v211.7c-.5 10.8-8.9 19.2-19.6 19.2z"/><path id="Path_100_55_" class="st3" d="M603.4 108.7c-8.6 5.5-20.7 3.2-26.5-5.8l-47.1-73.5c-5.5-8.6-3.2-20.7 5.8-26.5 8.6-5.5 20.7-3.2 26.5 5.8l47.1 73.5c5.8 9.1 2.8 21-5.8 26.5z"/><path id="Path_100_54_" class="st3" d="M552 3c-8.6-5.5-20.7-3.2-26.5 5.8l-47.1 73.5c-5.5 8.6-3.2 20.7 5.8 26.5 8.6 5.5 20.7 3.2 26.5-5.8l47.1-73.5c5.8-9.1 2.8-21-5.8-26.5z"/><path id="Path_99_00000080891511661319149970000004040782671300564629_" class="st3" d="M547.8 829.2c10.2 0 19.2 8.5 19.2 19.2v211.7c0 10.2-8.5 19.2-19.6 19.2-10.2 0-19.2-8.5-19.2-19.2V848.3c.5-10.7 8.9-19.1 19.6-19.1z"/><path id="Path_100_00000052798554985394544590000000878172020675536788_" class="st3" d="M484.2 971.3c8.6-5.5 20.7-3.2 26.5 5.8l47.1 73.5c5.5 8.6 3.2 20.7-5.8 26.5-8.6 5.5-20.7 3.2-26.5-5.8l-47.1-73.5c-5.8-9.1-2.8-21 5.8-26.5z"/><path id="Path_100_00000021088985518923645290000009546243855944310678_" class="st3" d="M535.6 1077c8.6 5.5 20.7 3.2 26.5-5.8l47.1-73.5c5.5-8.6 3.2-20.7-5.8-26.5-8.6-5.5-20.7-3.2-26.5 5.8l-47.1 73.5c-5.8 9.1-2.8 21 5.8 26.5z"/><path id="Path_99_00000178180278816985030450000006050034157537967783_" class="st4" d="M336.5 338.4c-7.2 7.2-19.5 7.6-27.1 0L159.7 188.7c-7.2-7.2-7.6-19.5.3-27.4 7.2-7.2 19.5-7.6 27.1 0L336.8 311c7.3 7.8 7.3 19.8-.3 27.4z"/><path id="Path_100_00000059295839109222031370000009648549755192802195_" class="st4" d="M281 192.9c-2.2 10-12.4 16.9-22.8 14.6l-85.3-18.6c-10-2.2-16.9-12.4-14.6-22.8 2.2-10 12.4-16.9 22.8-14.6l85.3 18.6c10.4 2.3 16.8 12.8 14.6 22.8z"/><path id="Path_100_00000134217887377957483460000000008358983830029222_" class="st4" d="M169.9 154.5c-10 2.2-16.9 12.4-14.6 22.8l18.6 85.3c2.2 10 12.4 16.9 22.8 14.6 10-2.2 16.9-12.4 14.6-22.8l-18.6-85.3c-2.3-10.5-12.8-16.8-22.8-14.6z"/><path id="Path_99_00000112631844794345137730000014054058373833024648_" class="st4" d="M751.1 741.6c7.2-7.2 19.5-7.6 27.1 0l149.7 149.7c7.2 7.2 7.6 19.5-.3 27.4-7.2 7.2-19.5 7.6-27.1 0L750.8 769c-7.2-7.8-7.2-19.8.3-27.4z"/><path id="Path_100_00000020369339093297959150000001711903952827177135_" class="st4" d="M806.6 887.1c2.2-10 12.4-16.9 22.8-14.6l85.3 18.6c10 2.2 16.9 12.4 14.6 22.8-2.2 10-12.4 16.9-22.8 14.6l-85.3-18.6c-10.4-2.3-16.8-12.8-14.6-22.8z"/><path id="Path_100_00000180360913834090867460000012764575015274543255_" class="st4" d="M917.7 925.5c10-2.2 16.9-12.4 14.6-22.8l-18.6-85.3c-2.2-10-12.4-16.9-22.8-14.6-10 2.2-16.9 12.4-14.6 22.8l18.6 85.3c2.3 10.5 12.8 16.8 22.8 14.6z"/><path id="Path_99_00000064347775552099171910000002611759329927028657_" class="st4" d="M747.3 338.4c7.2 7.2 19.5 7.6 27.1 0l149.7-149.7c7.2-7.2 7.6-19.5-.3-27.4-7.2-7.2-19.5-7.6-27.1 0L747 311c-7.2 7.8-7.2 19.8.3 27.4z"/><path id="Path_100_00000076603604447530432190000006705255336519017133_" class="st4" d="M802.8 192.9c2.2 10 12.4 16.9 22.8 14.6l85.3-18.6c10-2.2 16.9-12.4 14.6-22.8-2.2-10-12.4-16.9-22.8-14.6l-85.3 18.6c-10.4 2.3-16.8 12.8-14.6 22.8z"/><path id="Path_100_00000095317517400349827920000015759732682005556617_" class="st4" d="M913.9 154.5c10 2.2 16.9 12.4 14.6 22.8l-18.6 85.3c-2.2 10-12.4 16.9-22.8 14.6-10-2.2-16.9-12.4-14.6-22.8l18.6-85.3c2.3-10.5 12.8-16.8 22.8-14.6z"/><path id="Path_99_00000052797643618052036740000005522503867905233066_" class="st4" d="M332.7 741.6c-7.2-7.2-19.5-7.6-27.1 0L155.9 891.3c-7.2 7.2-7.6 19.5.3 27.4 7.2 7.2 19.5 7.6 27.1 0L333 769c7.2-7.8 7.2-19.8-.3-27.4z"/><path id="Path_100_00000146499819489332450840000012699318834382819742_" class="st4" d="M277.2 887.1c-2.2-10-12.4-16.9-22.8-14.6l-85.3 18.6c-10 2.2-16.9 12.4-14.6 22.8 2.2 10 12.4 16.9 22.8 14.6l85.3-18.6c10.4-2.3 16.8-12.8 14.6-22.8z"/><path id="Path_100_00000088115230034630590960000004827964803025804717_" class="st4" d="M166.1 925.5c-10-2.2-16.9-12.4-14.6-22.8l18.6-85.3c2.2-10 12.4-16.9 22.8-14.6 10 2.2 16.9 12.4 14.6 22.8l-18.6 85.3c-2.3 10.5-12.8 16.8-22.8 14.6z"/><path id="Path_99_00000130630141659005280260000001603125433988519614_" class="st3" d="M829.2 536c0-10.2 8.5-19.2 19.2-19.2h211.7c10.2 0 19.2 8.5 19.2 19.6 0 10.2-8.5 19.2-19.2 19.2H848.3c-10.7-.5-19.1-8.9-19.1-19.6z"/><path id="Path_100_00000101823930166081878730000001643107443042332857_" class="st3" d="M971.3 599.6c-5.5-8.6-3.2-20.7 5.8-26.5l73.5-47.1c8.6-5.5 20.7-3.2 26.5 5.8 5.5 8.6 3.2 20.7-5.8 26.5l-73.5 47.1c-9.1 5.8-21 2.8-26.5-5.8z"/><path id="Path_100_00000070103754568752219410000008769283047023327389_" class="st3" d="M1077 548.2c5.5-8.6 3.2-20.7-5.8-26.5l-73.5-47.1c-8.6-5.5-20.7-3.2-26.5 5.8-5.5 8.6-3.2 20.7 5.8 26.5l73.5 47.1c9.1 5.8 21 2.8 26.5-5.8z"/><path id="Path_99_00000094598491977138288780000003472965203675260568_" class="st3" d="M250.8 544c0 10.2-8.5 19.2-19.2 19.2H19.9C9.7 563.2.7 554.7.7 543.6c0-10.2 8.5-19.2 19.2-19.2h211.7c10.8.5 19.2 8.9 19.2 19.6z"/><path id="Path_100_00000182528381133475748210000003745147856909678526_" class="st3" d="M108.7 480.4c5.5 8.6 3.2 20.7-5.8 26.5L29.4 554c-8.6 5.5-20.7 3.2-26.5-5.8-5.5-8.6-3.2-20.7 5.8-26.5l73.5-47.1c9.1-5.8 21-2.8 26.5 5.8z"/><path id="Path_100_00000084506256940017338540000010780148452596996231_" class="st3" d="M3 531.8c-5.5 8.6-3.2 20.7 5.8 26.5l73.5 47.1c8.6 5.5 20.7 3.2 26.5-5.8 5.5-8.6 3.2-20.7-5.8-26.5L29.4 526c-9-5.8-20.9-2.8-26.4 5.8z"/></svg>
