<svg version="1.1" id="Layer_1" xmlns="http://www.w3.org/2000/svg" xmlns:xlink="http://www.w3.org/1999/xlink" x="0" y="0" viewBox="0 0 1080 1080" style="enable-background:new 0 0 1080 1080" xml:space="preserve"><style>.st2{fill:#fff}.st4{fill:#081084}</style><defs><circle id="SVGID_1_" cx="540" cy="540" r="540"/></defs><clipPath id="SVGID_2_"><use xlink:href="#SVGID_1_" style="overflow:visible"/></clipPath><g id="XMLID_2128_" style="clip-path:url(#SVGID_2_)"><g id="XMLID_2157_"><path id="XMLID_2160_" transform="rotate(90 540 900)" style="fill:#088004" d="M360 90h360v1620H360z"/><path id="XMLID_2159_" transform="rotate(90 540 540)" class="st2" d="M360-270h360v1620H360z"/><path id="XMLID_2158_" transform="rotate(90 540 180)" style="fill:#f48e20" d="M360-630h360V990H360z"/></g><g id="XMLID_2129_"><path id="XMLID_2156_" class="st4" d="M707.4 540c0-92.5-74.9-167.4-167.4-167.4S372.6 447.5 372.6 540 447.5 707.4 540 707.4 707.4 632.5 707.4 540z"/><path id="XMLID_2155_" class="st2" d="M651.8 637.5c-3.6-3.6-3.6-9.4 0-13 3.2-3.2 8.3-3.5 11.9-.9 3.9-5.7 7.3-11.7 10.4-17.9-.3-.1-.6-.3-.9-.4-4.4-2.5-5.9-8.1-3.4-12.5 2.3-4 7.1-5.6 11.3-4 2.2-6.4 4-13 5.3-19.8-4.4-.7-7.8-4.5-7.8-9.1 0-5.1 4.1-9.2 9.2-9.2.4 0 .7 0 1.1.1.2-3.5.4-7.1.4-10.7 0-3.4-.1-6.7-.3-10-.4 0-.7.1-1.1.1-5.1 0-9.2-4.1-9.2-9.2 0-4.7 3.5-8.5 8-9.1-1.3-6.9-3.1-13.6-5.3-20.1-.4.2-.8.3-1.2.4-4.9 1.3-9.9-1.6-11.3-6.5-1.2-4.5 1.2-9.2 5.4-10.9-3-6.2-6.5-12.2-10.3-17.8-3.6 2.9-8.9 2.6-12.2-.7-3.6-3.6-3.6-9.4 0-13 .3-.3.7-.6 1-.9-4.5-5.2-9.4-10.2-14.7-14.7-.3.4-.6.7-.9 1.1-3.6 3.6-9.4 3.6-13 0-3.4-3.4-3.6-8.7-.6-12.3-5.7-3.9-11.8-7.4-18-10.5-.2.5-.4.9-.6 1.4-2.5 4.4-8.1 5.9-12.5 3.4-4.2-2.4-5.7-7.5-3.7-11.8-6.5-2.2-13.1-4-20-5.4-.4 4.7-4.3 8.4-9.1 8.4-5.1 0-9.2-4.1-9.2-9.2 0-.5.1-1.1.1-1.6-3.5-.2-7-.4-10.6-.4-3.4 0-6.9.1-10.3.4.1.5.2 1.1.2 1.6 0 5.1-4.1 9.2-9.2 9.2-4.8 0-8.8-3.7-9.1-8.4-7 1.3-13.7 3.2-20.3 5.4.2.5.4 1 .6 1.6 1.3 4.9-1.6 9.9-6.5 11.3-4.7 1.3-9.4-1.3-11-5.8-6.2 3-12.1 6.5-17.8 10.3 3.1 3.6 2.9 9-.5 12.4-3.6 3.6-9.4 3.6-13 0-.4-.4-.7-.8-1-1.2-5.2 4.6-10.2 9.5-14.7 14.7.4.3.8.6 1.2 1 3.6 3.6 3.6 9.4 0 13-3.4 3.4-8.8 3.6-12.4.6-3.9 5.8-7.4 11.8-10.4 18.1.5.2 1 .4 1.4.7 4.4 2.5 5.9 8.1 3.4 12.5-2.4 4.1-7.5 5.7-11.8 3.8-2.2 6.4-4 13.1-5.3 19.9 4.6.5 8.3 4.4 8.3 9.1 0 5.1-4.1 9.2-9.2 9.2-.5 0-.9 0-1.4-.1-.2 3.3-.3 6.7-.3 10 0 3.6.1 7.2.4 10.7.4-.1.9-.1 1.4-.1 5.1 0 9.2 4.1 9.2 9.2 0 4.7-3.6 8.6-8.1 9.1 1.4 6.9 3.2 13.6 5.4 20.1.4-.2.8-.3 1.2-.4 4.9-1.3 9.9 1.6 11.3 6.5 1.2 4.5-1.2 9.1-5.4 10.9 3 6.2 6.5 12.1 10.3 17.8 3.6-2.8 8.8-2.5 12.1.8 3.6 3.6 3.6 9.4 0 13-.3.3-.5.5-.8.7 4.5 5.2 9.4 10.1 14.7 14.6.2-.3.5-.5.7-.8 3.6-3.6 9.4-3.6 13 0 3.3 3.3 3.5 8.3.9 11.9 5.7 3.8 11.7 7.3 18 10.3.1-.3.3-.6.5-.9 2.5-4.4 8.2-5.9 12.5-3.4 4 2.3 5.6 7.1 4 11.3 6.4 2.2 13 3.9 19.8 5.3.7-4.4 4.5-7.7 9.1-7.7 5.1 0 9.2 4.1 9.2 9.2v.9c3.4.2 6.7.4 10.2.4 3.5 0 7-.1 10.5-.4v-.9c0-5.1 4.1-9.2 9.2-9.2 4.6 0 8.3 3.3 9 7.7 6.9-1.3 13.6-3.1 20.1-5.4-.1-.3-.2-.6-.3-.8-1.3-4.9 1.6-9.9 6.5-11.3 4.4-1.2 8.9 1 10.7 5 6.1-3 12-6.4 17.6-10.2-2.6-3.6-2.2-8.6 1-11.8 3.6-3.6 9.4-3.6 13 0l.6.6c5.2-4.5 10.1-9.4 14.6-14.6-.8-.3-1-.5-1.2-.7z"/><g id="XMLID_2130_"><path id="XMLID_2154_" class="st4" d="m545.8 476.6-5.7-85.7-5.9 85.7s5.9 31.4 5.9 63.3c0-31.9 5.7-63.3 5.7-63.3z"/><path id="XMLID_2153_" class="st4" d="M539.9 540.1c-31.9 0-63.3-5.9-63.3-5.9l-85.7 5.9 85.7 5.7s31.4-5.7 63.3-5.7z"/><path id="XMLID_2152_" class="st4" d="M540.2 540c22.6-22.6 48.8-40.8 48.8-40.8l56.6-64.6-64.8 56.4c0 .1-18.1 26.4-40.6 49z"/><path id="XMLID_2151_" class="st4" d="M539.8 540c-22.6-22.6-40.6-49-40.6-49l-64.8-56.4 56.6 64.6c.1 0 26.3 18.2 48.8 40.8z"/><path id="XMLID_2150_" class="st4" d="m562.3 480.3 17.1-84.2-28.2 81.1s-2.6 31.8-11 62.7c8.3-30.8 22.1-59.6 22.1-59.6z"/><path id="XMLID_2138_" class="st4" d="m599.7 562.3 84.2 17.1-81.1-28.2s-31.8-2.6-62.6-11c31.9 0 63.3 5.7 63.3 5.7l85.7-5.7-85.7-5.9s-31.4 5.9-63.3 5.9c-30.9 8.2-62.7 10.7-62.7 10.7L396 578.6l84.2-16.7s28.9-13.6 59.7-21.8C512.2 556 482 566.5 482 566.5l-71.5 47.6 77.2-37.6s24.4-20.5 52.2-36.3c-22.6 22.6-48.9 40.6-48.9 40.6l-56.4 64.8 64.6-56.6s18.2-26.2 40.7-48.7v.1c-16 27.6-36.7 51.7-36.7 51.7l-37.8 77.1 47.8-71.4s10.8-29.9 26.7-57.5v.1c-8.4 30.7-22.3 59.2-22.3 59.2l-16.9 84.2 28-81.2s2.8-31.6 11.1-62.3c0 .1.1.3.1.4-.1 31.7-5.9 62.6-5.9 62.6l5.9 85.7 5.7-85.7s-5.6-30.9-5.7-62.5c8.1 30.6 10.7 61.9 10.7 61.9l27.6 81.3-16.2-84.2s-13.6-28.4-21.9-58.9v-.4c15.7 27.6 26.3 57.5 26.3 57.5l47.4 71.6-37.4-77.3s-20.5-24.2-36.4-51.8v-.2c22.5 22.6 40.7 48.7 40.7 48.7l64.6 56.6-56.4-64.8s-26.3-18-48.8-40.5v-.1c27.6 16 51.9 36.6 51.9 36.6l77 38-71.2-48s-30.1-10.6-57.7-26.6v-.1c30.8 8.5 59.6 22.2 59.6 22.2zM540 540.2c.1 0 .1 0 0 0 .1 0 .1 0 0 0zm.1 0s-.1.1 0 0c-.1.1-.1.1 0 0-.1 0-.1 0 0 0-.1 0-.1 0 0 0zm-.1 0zm-.1 0c.1 0 .1 0 0 0 .1 0 .1 0 0 0zm0 0c.1 0 .1 0 0 0 .1 0 .1 0 0 0 .1.1.1.1 0 0 .1.1 0 0 0 0zm.1.1c.1 0 0 .1 0 .1v-.1zm.1.5c0-.1-.1-.3-.1-.4v-.1l.1.1v.4zm0-.4s0-.1-.1-.1v-.1l.1.1v.1zm0-.1s0-.1 0 0c0-.1 0-.1 0 0 0-.1 0-.1 0 0 0-.1 0 0 0 0zm0-.1c0-.1 0-.1 0 0z"/><path id="XMLID_2137_" class="st4" d="M539.9 540.1c-30.8-8.4-59.5-22.4-59.5-22.4l-84.2-16.9 81.2 28c-.1.1 31.7 2.9 62.5 11.3z"/><path id="XMLID_2136_" class="st4" d="M540.1 540c27.7-15.8 57.8-26.5 57.8-26.5l71.6-47.4-77.3 37.4s-24.3 20.7-52.1 36.5z"/><path id="XMLID_2135_" class="st4" d="M539.8 540c-15.8-27.8-26.3-58-26.3-58l-47.6-71.5 37.6 77.2c0 .1 20.5 24.5 36.3 52.3z"/><path id="XMLID_2134_" class="st4" d="M540.2 540c16-27.6 36.6-52 36.6-52l38-77-48 71.2s-10.7 30.1-26.6 57.8z"/><path id="XMLID_2133_" class="st4" d="M539.9 540.1c-27.7-16-51.9-36.8-51.9-36.8l-77.1-37.8 71.4 47.8c-.1 0 29.9 10.8 57.6 26.8z"/><path id="XMLID_2132_" class="st4" d="M540.1 540.1c30.9-8.2 62.6-10.9 62.6-10.9l81.3-27.6-84.2 16.4s-28.8 13.8-59.7 22.1z"/><path id="XMLID_2131_" class="st4" d="M539.9 539.9c-8.3-30.9-10.7-62.7-10.7-62.7L501.4 396l16.7 84.2c-.1 0 13.5 28.9 21.8 59.7z"/></g></g></g></svg>
