<svg version="1.1" id="Layer_1" xmlns="http://www.w3.org/2000/svg" x="0" y="0" viewBox="0 0 1080 1080" style="enable-background:new 0 0 1080 1080" xml:space="preserve"><style>.st1{fill:#fff}.st3{fill:#273571}</style><circle cx="523.5" cy="435.5" r="330.5" style="fill:#f26522"/><path class="st1" d="M405 580.3c-14.5 0-26.3-11.8-26.3-26.3 0-7 2.7-13.7 7.8-18.5l210.7-210.7c10.4-10.1 27.1-10 37.3.4 10 10.2 10 26.7 0 36.8L423.8 572.5c-5.1 5.1-11.8 7.8-18.8 7.8z"/><circle class="st1" cx="431.3" cy="343.4" r="52.7"/><circle class="st1" cx="615.7" cy="527.6" r="52.7"/><path d="m978.2 731.3-147.4 76.6-1.8-5.6c-10.6-41-52.3-65.6-93.2-55.1-5.3 1.4-10.4 3.3-15.1 5.7l-195.3 97.7-267.7-76.5H85.4v191.3h38.3L563.5 1080 1080 793.1c0-38.5-31.2-69.7-69.7-69.7-11.2.1-22.2 2.7-32.1 7.9z" style="fill:#f3ba98"/><path class="st3" d="m80.6 1039.4 146-45.9L146.3 738 .3 783.9l80.3 255.5z"/><circle class="st3" cx="865.1" cy="191.5" r="167.5"/><path class="st1" d="M804.7 97.4h120.7c.6.1 1 .5 1 1v11.5c0 .6-.4 1-1 1H880v1c6.5 3.5 11.5 10.6 15.1 21.5l.6 3.7h29.9c.6.1 1 .5 1 1v11.5c0 .6-.4 1-1 1h-28.7c0 12.9-7.9 25.4-23.6 37.5-14 8-23.9 12-29.7 12 0 .4-.4.5-1 .5l64.8 83.9v1h-24.6c-.3 0-25.3-32.5-75.1-97.4v-.6h7.8c27.6 0 44-9.9 49.6-29.7.4-2.4.6-4.3.6-5.7v-1.6h-60.6c-.6 0-1-.4-1-1V138c.1-.6.5-1 1-1h60.1c-2-7.8-6.4-14.1-13-18.9-9.2-4.8-17.6-7.3-25.2-7.3h-21.9c-.6 0-1-.4-1-1V98.3c-.4-.5 0-.9.6-.9z"/></svg>
