<svg version="1.1" id="Layer_1" xmlns="http://www.w3.org/2000/svg" x="0" y="0" viewBox="0 0 1080 1080" style="enable-background:new 0 0 1080 1080" xml:space="preserve"><style>.st0{fill:#ed6926}.st4{fill:#283571}.st5{fill:#e18327}.st6{fill:#283371}</style><path class="st0" d="m990.16 43.4 4.85-9.72 4.85 9.72c1.34 2.69 3.52 4.87 6.21 6.21l9.72 4.85-9.72 4.85a13.824 13.824 0 0 0-6.21 6.21l-4.85 9.72-4.85-9.72a13.824 13.824 0 0 0-6.21-6.21l-9.72-4.85 9.72-4.85c2.69-1.34 4.87-3.52 6.21-6.21z"/><circle class="st0" cx="552.71" cy="463.8" r="463.77"/><circle cx="552.71" cy="463.8" r="413.09" style="fill:#d8e0f2"/><path d="M965.79 463.8c0-227.78-185.31-413.09-413.09-413.09v826.17c227.78.01 413.09-185.3 413.09-413.08z" style="fill:#fff3e7"/><path d="m916.69 775.92-128.52 66.83-1.56-4.92c-9.18-35.72-45.59-57.24-81.31-48.06-4.57 1.17-9 2.83-13.22 4.94l-170.32 85.16-233.52-66.72H138.12v166.8h33.36l383.64 100.08 450.37-250.2c0-33.56-27.21-60.76-60.76-60.76a60.573 60.573 0 0 0-28.04 6.85z" style="fill:#f4bb99"/><path class="st4" d="m133.89 1044.61 127.32-39.96-69.94-222.8-127.31 39.96 69.93 222.8z"/><path class="st5" d="M628.4 617.68c0 83.61-67.78 151.38-151.38 151.38s-151.38-67.78-151.38-151.38"/><path class="st6" d="M477.02 287.83c0-83.61 67.78-151.38 151.38-151.38s151.38 67.78 151.38 151.38"/><path class="st5" d="M628.4 314.91c83.61 0 151.38 67.78 151.38 151.38S712.01 617.68 628.4 617.68"/><path class="st5" d="M628.4 311.51h151.38v157.31H628.4z"/><path class="st6" d="M477.02 590.6c-83.61 0-151.38-67.78-151.38-151.38s67.78-151.38 151.38-151.38"/><path transform="rotate(180 401.324 515.345)" class="st6" d="M325.63 436.69h151.38V594H325.63z"/><path class="st4" d="m933.32 91.17 11.7-23.4 11.7 23.4a33.258 33.258 0 0 0 14.9 14.9l23.4 11.7-23.4 11.7a33.258 33.258 0 0 0-14.9 14.9l-11.7 23.4-11.7-23.4a33.258 33.258 0 0 0-14.9-14.9l-23.4-11.7 23.4-11.7a33.258 33.258 0 0 0 14.9-14.9z"/></svg>
