<svg xmlns="http://www.w3.org/2000/svg" width="135.902" height="40.002"><defs><linearGradient id="a" x1=".808" y1=".5" x2="-1.573" y2=".5" gradientUnits="objectBoundingBox"><stop offset="0" stop-color="gold"/><stop offset=".075" stop-color="#fece00"/><stop offset=".48" stop-color="#fca704"/><stop offset=".803" stop-color="#fa8e07"/><stop offset="1" stop-color="#fa8608"/></linearGradient><linearGradient id="b" x1=".862" y1=".178" x2="-.501" y2="1.948" gradientUnits="objectBoundingBox"><stop offset="0" stop-color="#e82b36"/><stop offset="1" stop-color="#b4005a"/></linearGradient><linearGradient id="c" x1="-.507" y1="-.956" x2=".606" y2=".489" gradientUnits="objectBoundingBox"><stop offset="0" stop-color="#2f8e5b"/><stop offset=".39" stop-color="#4ea157"/><stop offset=".768" stop-color="#67b054"/><stop offset="1" stop-color="#70b653"/></linearGradient><style>.b{fill:#fff}</style></defs><g><rect width="134.871" height="38.97" rx="5" transform="translate(.516 .516)"/><path d="M156.247 134.591H30.574a5.12 5.12 0 0 1-5.115-5.115V99.7a5.121 5.121 0 0 1 5.115-5.115h125.673a5.121 5.121 0 0 1 5.115 5.115v29.772a5.121 5.121 0 0 1-5.115 5.119ZM30.574 95.6a4.111 4.111 0 0 0-4.106 4.1v29.772a4.111 4.111 0 0 0 4.106 4.106h125.673a4.111 4.111 0 0 0 4.106-4.106V99.7a4.111 4.111 0 0 0-4.106-4.106Z" transform="translate(-25.459 -94.589)" style="fill:#96999c"/></g><path class="b" d="M67.026 21.463a4.369 4.369 0 1 0 4.386 4.369 4.307 4.307 0 0 0-4.386-4.369Zm0 7.017a2.655 2.655 0 1 1 2.466-2.648 2.528 2.528 0 0 1-2.466 2.647Zm-9.567-7.017a4.369 4.369 0 1 0 4.385 4.369 4.306 4.306 0 0 0-4.385-4.369Zm0 7.017a2.655 2.655 0 1 1 2.465-2.648 2.528 2.528 0 0 1-2.465 2.647Zm-11.381-5.677v1.854h4.435a3.869 3.869 0 0 1-1.009 2.334 4.543 4.543 0 0 1-3.426 1.357 4.932 4.932 0 0 1 0-9.863 4.727 4.727 0 0 1 3.343 1.324l1.307-1.307a6.466 6.466 0 0 0-4.65-1.87 6.786 6.786 0 1 0 0 13.571 6.205 6.205 0 0 0 4.733-1.9 6.127 6.127 0 0 0 1.605-4.336 6.025 6.025 0 0 0-.1-1.159Zm46.544 1.44a4.061 4.061 0 0 0-3.741-2.78 4.152 4.152 0 0 0-4.12 4.369 4.276 4.276 0 0 0 4.335 4.369 4.346 4.346 0 0 0 3.641-1.937l-1.489-.993a2.5 2.5 0 0 1-2.152 1.208 2.222 2.222 0 0 1-2.118-1.324l5.842-2.416ZM86.664 25.7a2.4 2.4 0 0 1 2.284-2.549 1.691 1.691 0 0 1 1.622.927Zm-4.749 4.236h1.921V17.095h-1.919Zm-3.145-7.5h-.066a3.029 3.029 0 0 0-2.3-.977 4.373 4.373 0 0 0 0 8.739 2.98 2.98 0 0 0 2.3-.993h.066v.628c0 1.672-.894 2.566-2.333 2.566a2.417 2.417 0 0 1-2.2-1.556l-1.672.695a4.165 4.165 0 0 0 3.873 2.582c2.251 0 4.154-1.324 4.154-4.551v-7.845h-1.821Zm-2.2 6.041a2.658 2.658 0 0 1 0-5.3 2.669 2.669 0 0 1 0 5.3Zm25.046-11.386h-4.593v12.842h1.913v-4.866h2.677a3.994 3.994 0 1 0 0-7.977Zm.05 6.19h-2.73v-4.4h2.727a2.2 2.2 0 1 1 0 4.4Zm11.846-1.845a3.6 3.6 0 0 0-3.42 1.966l1.7.711a1.815 1.815 0 0 1 1.751-.942 1.846 1.846 0 0 1 2.016 1.652v.132a4.248 4.248 0 0 0-2-.5c-1.834 0-3.7 1.008-3.7 2.891a2.967 2.967 0 0 0 3.189 2.825 2.7 2.7 0 0 0 2.445-1.256h.066v.991h1.85v-4.923c0-2.271-1.702-3.543-3.899-3.543Zm-.231 7.038c-.628 0-1.5-.314-1.5-1.09 0-.991 1.09-1.372 2.032-1.372a3.415 3.415 0 0 1 1.751.43 2.324 2.324 0 0 1-2.285 2.037Zm10.871-6.757-2.2 5.568h-.066l-2.28-5.568h-2.065l3.42 7.782-1.949 4.328h2l5.271-12.11Zm-17.265 8.216h1.916V17.095h-1.916Z"/><path d="M42.162 106.73a2.056 2.056 0 0 0-.475 1.442v22.7a2.054 2.054 0 0 0 .475 1.442l.076.075 12.716-12.716v-.3l-12.716-12.717Z" transform="translate(-31.322 -99.858)" style="fill:#40bff2"/><path d="m66.7 128.708-4.238-4.24v-.3l4.24-4.24.1.054 5.022 2.854c1.435.815 1.435 2.149 0 2.964l-5.022 2.854Z" transform="translate(-38.827 -104.653)" style="fill:url(#a)"/><path d="m59.557 131.136-4.334-4.336-12.793 12.793a1.67 1.67 0 0 0 2.133.063l14.994-8.52" transform="translate(-31.59 -107.137)" style="fill:url(#b)"/><path d="m59.557 115-14.994-8.52a1.67 1.67 0 0 0-2.133.063l12.793 12.793Z" transform="translate(-31.59 -99.669)" style="fill:url(#c)"/><path class="b" d="M45.886 8.32a2.195 2.195 0 0 0-1.456-.561 2.322 2.322 0 0 0 0 4.64 1.752 1.752 0 0 0 1.93-1.632h-1.719v-.71h2.649c0 2.123-1.132 3.123-2.859 3.123a3.1 3.1 0 0 1 0-6.2 2.987 2.987 0 0 1 2.044.8ZM51.984 7.048v.763h-2.763v1.93h2.412v.763h-2.412v1.826h2.851v.763h-3.666V7.05ZM57.273 7.048v.772h-1.834v5.272h-.824V7.82h-1.834v-.772ZM61.187 7.048v6.043h-.816V7.048ZM66.747 7.048v.772h-1.834v5.272h-.824V7.82h-1.834v-.772ZM72.502 6.978a3.1 3.1 0 1 1-3.052 3.105 3.065 3.065 0 0 1 3.052-3.105Zm0 5.412a2.312 2.312 0 1 0-2.237-2.306 2.252 2.252 0 0 0 2.237 2.306ZM80.398 13.091l-2.754-4.552v4.552h-.816V7.048h.807l2.728 4.517V7.048h.816v6.043Z"/></svg>
