<svg version="1.1" id="Layer_1" xmlns="http://www.w3.org/2000/svg" x="0" y="0" viewBox="0 0 1080 1080" style="enable-background:new 0 0 1080 1080" xml:space="preserve"><style>.st0{fill:#283470}.st1{fill:#fff}.st2{fill:#3c3936}.st3{fill:#e55a2e}.st4{fill:#f9c09f}.st5{fill:#a4522a}</style><path class="st0" d="M711.9 309.4c-39.2 0-78.2.1-117.4 0-39.3-.2-60-20.7-60.1-59.6-.1-63.3-.1-126.7 0-190.1.1-39 20.6-59.4 60-59.6 78.2-.2 156.5-.2 234.7 0 40 .1 59.3 19.6 59.4 59.4.1 63.3.1 126.7 0 190.1-.1 39.9-19.5 59.4-59.3 59.7-38.9.2-78.1.1-117.3.1zm-72.5-155.3c0 24.8-.4 49.7.2 74.5.2 6.3 1.8 15.2 6 17.8 3.6 2.2 12.6-1.4 17.8-4.7 36.1-24.2 71.8-48.7 107.7-73.4 17.1-11.8 17.3-16.7.5-28.1-36.4-24.8-72.9-49.5-109.7-73.8-4.6-3-12.6-6.5-16.1-4.5-3.9 2.2-6 10.3-6.1 16-.7 25.3-.3 50.7-.3 76.2zM1010.9 154.8c0 30.5.4 60.9-.3 91.4-.2 6.6-2.7 16.3-7.4 18.8s-14.4-.2-19.9-3.8c-25-16.3-49.8-32.9-73.3-51-6.6-5.1-11.3-15.8-12.4-24.4-1.9-16.6.7-33.6-.9-50.2-2.1-20.3 4.5-33.6 22.4-44.2 22.4-13.2 43-29.6 64.9-43.6 5.5-3.5 14.6-5.8 20.1-3.6 4 1.6 6.5 11.2 6.6 17.4.5 31.1.2 62.2.2 93.2z"/><path class="st1" d="M639.4 154.1c0-25.4-.3-50.9.3-76.4.1-5.6 2.2-13.7 6.1-16 3.5-2 11.4 1.5 16.1 4.5 36.8 24.3 73.2 48.9 109.7 73.8 16.8 11.4 16.7 16.4-.5 28.1-35.8 24.6-71.5 49.3-107.7 73.4-5 3.4-14.1 7-17.8 4.7-4.2-2.6-5.8-11.6-6-17.8-.6-24.6-.2-49.5-.2-74.3z"/><path class="st2" d="M526.9 366.7c0 53.7-42.2 97.2-94.2 97.2s-94.2-43.5-94.2-97.2 42.2-97.2 94.2-97.2 94.2 43.5 94.2 97.2"/><path class="st3" d="m224.3 453.9 217.2-1.8s40.6 5.3 81.7 42.2c56.9 51.3 144.7 125.9 144.7 125.9l77.7-17.6 22.4 58.8s-23.5 56.5-63.5 91.8c-16 14.1-47.3 10.7-70.6 0-43.6-20-108.3-51.8-108.3-51.8l4.7 377.5-426.1-.2L123 957.9l-62.4-2.1s-88.3-24.7-49.5-130.7c37-100.6 70.6-266.8 93.1-315 37.5-65.2 68.8-56.2 120.1-56.2"/><path class="st2" d="M511.7 354.7c0 50.2-25.5 97.6-73.8 97.6L243.7 454c-48.3 0-100.6-35.3-87.8-99.3L209.4 205c28-95.7 50.6-113.4 127.4-113.4h21.1c56.3 0 90.3 23.3 101 72.3 11.6 53.2 52.8 190.8 52.8 190.8"/><path class="st4" d="M866.7 489.3c-6.4 21.1-32.4 75.2-45.9 98.9-17.6 30.9-77.3 119.3-77.3 119.3l-77.8-88.3L817.2 460l11.8-28.3 4.9-17.3 36.2-21.5c0-.1 21.2 15.2-3.4 96.4M341.4 256.4l-55.7 197.9 94.8 1.8.1-63.1s41.8-2.7 60.1-36.7c12.3-22.8 10.5-91.3 10.5-91.3l-23.6-72.9c.1.1-23.1 58-86.2 64.3"/><path class="st5" d="M500.4 719.7v59.6l-34.1-154.1zM169.8 856.1h-38.4l37.9-168.6z"/><path class="st3" d="m717 454.3 112.2-185.9 126.1 43.1-112.8 183.1z"/><path class="st4" d="m253.4 856.1-24.7 105.3L423.2 911l21.9 37s49.3 0 66.1-3.3c-2.2-79.6-83.8-83.9-83.8-83.9l-174-4.7z"/><path class="st3" d="M1080.9 806.1c0 95.4-77.3 172.6-172.6 172.6s-172.6-77.3-172.6-172.6S813 633.5 908.3 633.5s172.6 77.3 172.6 172.6"/><path class="st1" d="M905.2 802.3c23.9 0 43.3-19.4 43.3-43.2 0-23.9-19.4-43.3-43.3-43.3S862 735.2 862 759.1c0 23.8 19.4 43.2 43.2 43.2M908.3 814c-56 0-101.4 44-101.4 82.5h202.9c-.1-38.5-45.5-82.5-101.5-82.5"/><path class="st0" d="M820.5 1080H695.8c-12.7 0-23.1-10.3-23.1-23.1V932.2c0-12.7 10.3-23.1 23.1-23.1h124.8c12.7 0 23.1 10.3 23.1 23.1V1057c-.1 12.7-10.5 23-23.2 23z"/><path class="st1" d="m744.9 1043-45.1-41.7 17.5-18.9 24.8 24.2 53.6-60.5 20.8 16.3z"/></svg>
